<svg width="25" height="24" viewBox="0 0 25 24" fill="none" xmlns="http://www.w3.org/2000/svg">
<path fill-rule="evenodd" clip-rule="evenodd" d="M15.5 13H13.5V15C13.5 15.55 13.05 16 12.5 16C11.95 16 11.5 15.55 11.5 15V13H9.5C8.95 13 8.5 12.55 8.5 12C8.5 11.45 8.95 11 9.5 11H11.5V9C11.5 8.45 11.95 8 12.5 8C13.05 8 13.5 8.45 13.5 9V11H15.5C16.05 11 16.5 11.45 16.5 12C16.5 12.55 16.05 13 15.5 13ZM18.5 3H6.5C4.846 3 3.5 4.346 3.5 6V18C3.5 19.654 4.846 21 6.5 21H18.5C20.154 21 21.5 19.654 21.5 18V6C21.5 4.346 20.154 3 18.5 3Z" fill="#979899"/>
<mask id="mask0_394_1903" style="mask-type:luminance" maskUnits="userSpaceOnUse" x="3" y="3" width="19" height="18">
<path fill-rule="evenodd" clip-rule="evenodd" d="M15.5 13H13.5V15C13.5 15.55 13.05 16 12.5 16C11.95 16 11.5 15.55 11.5 15V13H9.5C8.95 13 8.5 12.55 8.5 12C8.5 11.45 8.95 11 9.5 11H11.5V9C11.5 8.45 11.95 8 12.5 8C13.05 8 13.5 8.45 13.5 9V11H15.5C16.05 11 16.5 11.45 16.5 12C16.5 12.55 16.05 13 15.5 13ZM18.5 3H6.5C4.846 3 3.5 4.346 3.5 6V18C3.5 19.654 4.846 21 6.5 21H18.5C20.154 21 21.5 19.654 21.5 18V6C21.5 4.346 20.154 3 18.5 3Z" fill="white"/>
</mask>
<g mask="url(#mask0_394_1903)">
</g>
</svg>
