<svg width="24" height="24" viewBox="0 0 24 24" fill="none" xmlns="http://www.w3.org/2000/svg">
<path d="M20.0625 2H4.3125C3.9644 2 3.63056 2.13828 3.38442 2.38442C3.13828 2.63056 3 2.9644 3 3.3125V11.1875C3 11.5356 3.13828 11.8694 3.38442 12.1156C3.63056 12.3617 3.9644 12.5 4.3125 12.5H20.0625C20.4106 12.5 20.7444 12.3617 20.9906 12.1156C21.2367 11.8694 21.375 11.5356 21.375 11.1875V3.3125C21.375 2.9644 21.2367 2.63056 20.9906 2.38442C20.7444 2.13828 20.4106 2 20.0625 2V2Z" fill="#979899"/>
<path d="M21.375 15.125H3V17.75H21.375V15.125Z" fill="#979899"/>
<path d="M21.375 20.375H3V23H21.375V20.375Z" fill="#979899"/>
</svg>
