<svg width="18" height="21" viewBox="0 0 18 21" fill="none" xmlns="http://www.w3.org/2000/svg">
<path d="M11.0487 16.2516C9.69865 18.5898 6.62509 19.4134 4.28683 18.0634C1.94856 16.7134 1.125 13.6398 2.475 11.3016L7.2 3.11761C8.19 1.40288 10.403 0.809921 12.1177 1.79992C13.8324 2.78992 14.4254 5.00288 13.4354 6.71761L9.61038 13.3427C8.98038 14.4339 7.62802 14.7963 6.53683 14.1663C5.44563 13.5363 5.08327 12.1839 5.71327 11.0927L9.08827 5.24703L10.2574 5.92203L6.8824 11.7677C6.6124 12.2354 6.74417 12.7271 7.21183 12.9971C7.67948 13.2671 8.17125 13.1354 8.44125 12.6677L12.2662 6.04261C12.8962 4.95142 12.5339 3.59905 11.4427 2.96905C10.3515 2.33905 8.99913 2.70142 8.36913 3.79261L3.64413 11.9766C2.65413 13.6913 3.2471 15.9042 4.96183 16.8942C6.67656 17.8842 8.88952 17.2913 9.87952 15.5766L14.1545 8.17203L15.3237 8.84703L11.0487 16.2516Z" fill="#DADBDC"/>
</svg>
