<svg width="25" height="24" viewBox="0 0 25 24" fill="none" xmlns="http://www.w3.org/2000/svg">
<path fill-rule="evenodd" clip-rule="evenodd" d="M14.5 18.3413C14.5 19.2403 13.584 20.0003 12.5 20.0003C11.416 20.0003 10.5 19.2403 10.5 18.3413V18.0003H14.5V18.3413ZM21.021 15.2073L19.22 13.4043V8.93626C19.22 5.45526 16.718 2.49926 13.399 2.05926C11.478 1.80426 9.53803 2.39026 8.08303 3.66626C6.61903 4.94826 5.78003 6.79326 5.78003 8.72726L5.77903 13.4043L3.97903 15.2083C3.51003 15.6773 3.37103 16.3773 3.62503 16.9903C3.88003 17.6033 4.47303 18.0003 5.13703 18.0003H8.50003V18.3413C8.50003 20.3593 10.294 22.0003 12.5 22.0003C14.706 22.0003 16.5 20.3593 16.5 18.3413V18.0003H19.862C20.526 18.0003 21.119 17.6043 21.373 16.9903C21.628 16.3773 21.489 15.6773 21.021 15.2073Z" fill="#F2F3F4"/>
<mask id="mask0_345_2981" style="mask-type:luminance" maskUnits="userSpaceOnUse" x="3" y="2" width="19" height="21">
<path fill-rule="evenodd" clip-rule="evenodd" d="M14.5 18.3413C14.5 19.2403 13.584 20.0003 12.5 20.0003C11.416 20.0003 10.5 19.2403 10.5 18.3413V18.0003H14.5V18.3413ZM21.021 15.2073L19.22 13.4043V8.93626C19.22 5.45526 16.718 2.49926 13.399 2.05926C11.478 1.80426 9.53803 2.39026 8.08303 3.66626C6.61903 4.94826 5.78003 6.79326 5.78003 8.72726L5.77903 13.4043L3.97903 15.2083C3.51003 15.6773 3.37103 16.3773 3.62503 16.9903C3.88003 17.6033 4.47303 18.0003 5.13703 18.0003H8.50003V18.3413C8.50003 20.3593 10.294 22.0003 12.5 22.0003C14.706 22.0003 16.5 20.3593 16.5 18.3413V18.0003H19.862C20.526 18.0003 21.119 17.6043 21.373 16.9903C21.628 16.3773 21.489 15.6773 21.021 15.2073Z" fill="white"/>
</mask>
<g mask="url(#mask0_345_2981)">
</g>
</svg>
