<svg width="18" height="18" viewBox="0 0 18 18" fill="none" xmlns="http://www.w3.org/2000/svg">
<path d="M11.4656 9.40834C11.4656 10.7191 10.403 11.7818 9.09218 11.7818C7.78139 11.7818 6.71875 10.7191 6.71875 9.40834C6.71875 8.09755 7.78139 7.03491 9.09218 7.03491C10.403 7.03491 11.4656 8.09755 11.4656 9.40834Z" fill="white"/>
<path d="M14.8946 5.58231H12.5396C12.3635 5.58231 12.1987 5.49411 12.1008 5.34756L11.3591 4.23495C11.2612 4.08789 11.0965 4 10.9202 4H7.26532C7.08924 4 6.9244 4.08809 6.8265 4.23495L6.08485 5.34756C5.98694 5.49411 5.82221 5.58231 5.64592 5.58231H3.2911C2.85411 5.58231 2.5 5.93673 2.5 6.37341V12.9663C2.5 13.4032 2.85411 13.7573 3.2911 13.7573H14.8946C15.3316 13.7573 15.6857 13.4032 15.6857 12.9663V6.37341C15.6858 5.93673 15.3317 5.58231 14.8947 5.58231H14.8946ZM9.09287 12.5729C7.34776 12.5729 5.92827 11.1535 5.92827 9.4083C5.92827 7.66379 7.34779 6.24369 9.09287 6.24369C10.838 6.24369 12.2575 7.66381 12.2575 9.4083C12.2575 11.1534 10.838 12.5729 9.09287 12.5729ZM13.0486 6.77427C13.0486 6.91846 12.9318 7.03487 12.7875 7.03487H12.7822C12.638 7.03487 12.521 6.91836 12.521 6.77427V6.76875C12.521 6.62455 12.6379 6.50763 12.7822 6.50763H12.7875C12.9317 6.50763 13.0486 6.62455 13.0486 6.76875V6.77427Z" fill="white"/>
<path d="M4.08203 4.52734H5.1369V5.05488H4.08203V4.52734Z" fill="white"/>
</svg>
