<svg width="16" height="16" viewBox="0 0 16 16" fill="none" xmlns="http://www.w3.org/2000/svg">
<path d="M13.2005 0.660828H2.47506C1.86551 0.660828 1.28093 0.90297 0.849915 1.33399C0.4189 1.765 0.176758 2.34958 0.176758 2.95913V13.6845C0.176758 14.2941 0.4189 14.8787 0.849915 15.3097C1.28093 15.7407 1.86551 15.9828 2.47506 15.9828H13.2005C13.81 15.9828 14.3946 15.7407 14.8256 15.3097C15.2566 14.8787 15.4988 14.2941 15.4988 13.6845V2.95913C15.4988 2.34958 15.2566 1.765 14.8256 1.33399C14.3946 0.90297 13.81 0.660828 13.2005 0.660828ZM13.9666 13.6845C13.9666 13.8877 13.8859 14.0826 13.7422 14.2263C13.5985 14.3699 13.4037 14.4506 13.2005 14.4506H2.47506C2.27188 14.4506 2.07702 14.3699 1.93335 14.2263C1.78967 14.0826 1.70896 13.8877 1.70896 13.6845V2.95913C1.70896 2.75595 1.78967 2.56109 1.93335 2.41742C2.07702 2.27374 2.27188 2.19303 2.47506 2.19303H13.2005C13.4037 2.19303 13.5985 2.27374 13.7422 2.41742C13.8859 2.56109 13.9666 2.75595 13.9666 2.95913V13.6845Z" fill="#818181"/>
</svg>
