<svg width="24" height="24" viewBox="0 0 24 24" fill="none" xmlns="http://www.w3.org/2000/svg">
<g id="01) Icons/Line/checkmark">
<path id="&#240;&#159;&#142;&#168; Icon &#208;&#161;olor" fill-rule="evenodd" clip-rule="evenodd" d="M9.86326 18C9.58726 18 9.32326 17.886 9.13426 17.685L4.27126 12.506C3.89226 12.104 3.91326 11.471 4.31526 11.093C4.71826 10.715 5.35126 10.735 5.72826 11.137L9.85326 15.528L18.2613 6.32599C18.6353 5.91699 19.2673 5.88999 19.6753 6.26199C20.0823 6.63399 20.1103 7.26699 19.7383 7.67399L10.6013 17.674C10.4143 17.88 10.1483 17.998 9.87026 18H9.86326Z" fill="#080808"/>
<mask id="mask0_120_3184" style="mask-type:luminance" maskUnits="userSpaceOnUse" x="3" y="6" width="17" height="12">
<path id="&#240;&#159;&#142;&#168; Icon &#208;&#161;olor_2" fill-rule="evenodd" clip-rule="evenodd" d="M9.86326 18C9.58726 18 9.32326 17.886 9.13426 17.685L4.27126 12.506C3.89226 12.104 3.91326 11.471 4.31526 11.093C4.71826 10.715 5.35126 10.735 5.72826 11.137L9.85326 15.528L18.2613 6.32599C18.6353 5.91699 19.2673 5.88999 19.6753 6.26199C20.0823 6.63399 20.1103 7.26699 19.7383 7.67399L10.6013 17.674C10.4143 17.88 10.1483 17.998 9.87026 18H9.86326Z" fill="white"/>
</mask>
<g mask="url(#mask0_120_3184)">
</g>
</g>
</svg>
