<svg width="16" height="17" viewBox="0 0 16 17" fill="none" xmlns="http://www.w3.org/2000/svg">
<path d="M13.2005 0.813599H2.47506C1.86551 0.813599 1.28093 1.05574 0.849915 1.48676C0.4189 1.91777 0.176758 2.50235 0.176758 3.1119V13.8373C0.176758 14.4469 0.4189 15.0314 0.849915 15.4625C1.28093 15.8935 1.86551 16.1356 2.47506 16.1356H13.2005C13.81 16.1356 14.3946 15.8935 14.8256 15.4625C15.2566 15.0314 15.4988 14.4469 15.4988 13.8373V3.1119C15.4988 2.50235 15.2566 1.91777 14.8256 1.48676C14.3946 1.05574 13.81 0.813599 13.2005 0.813599ZM13.9666 13.8373C13.9666 14.0405 13.8859 14.2354 13.7422 14.379C13.5985 14.5227 13.4037 14.6034 13.2005 14.6034H2.47506C2.27188 14.6034 2.07702 14.5227 1.93335 14.379C1.78967 14.2354 1.70896 14.0405 1.70896 13.8373V3.1119C1.70896 2.90872 1.78967 2.71386 1.93335 2.57019C2.07702 2.42651 2.27188 2.3458 2.47506 2.3458H13.2005C13.4037 2.3458 13.5985 2.42651 13.7422 2.57019C13.8859 2.71386 13.9666 2.90872 13.9666 3.1119V13.8373Z" fill="#F2F3F4"/>
<path d="M10.5187 4.6441H5.15599C4.85121 4.6441 4.55892 4.76518 4.34341 4.98068C4.12791 5.19619 4.00684 5.48848 4.00684 5.79326V11.156C4.00684 11.4607 4.12791 11.753 4.34341 11.9685C4.55892 12.184 4.85121 12.3051 5.15599 12.3051H10.5187C10.8235 12.3051 11.1158 12.184 11.3313 11.9685C11.5468 11.753 11.6678 11.4607 11.6678 11.156V5.79326C11.6678 5.48848 11.5468 5.19619 11.3313 4.98068C11.1158 4.76518 10.8235 4.6441 10.5187 4.6441Z" fill="#F2F3F4"/>
</svg>
