<svg width="24" height="24" viewBox="0 0 24 24" fill="none" xmlns="http://www.w3.org/2000/svg">
<path fill-rule="evenodd" clip-rule="evenodd" d="M14.8284 10.5858L13.4142 12L14.8284 13.4142C15.2173 13.8031 15.2173 14.4395 14.8284 14.8284C14.4395 15.2173 13.8031 15.2173 13.4142 14.8284L12 13.4142L10.5858 14.8284C10.1969 15.2173 9.56048 15.2173 9.17157 14.8284C8.78266 14.4395 8.78266 13.8031 9.17157 13.4142L10.5858 12L9.17157 10.5858C8.78266 10.1969 8.78266 9.56048 9.17157 9.17157C9.56048 8.78266 10.1969 8.78266 10.5858 9.17157L12 10.5858L13.4142 9.17157C13.8031 8.78266 14.4395 8.78266 14.8284 9.17157C15.2173 9.56048 15.2173 10.1969 14.8284 10.5858ZM12 2C6.486 2 2 6.486 2 12C2 17.514 6.486 22 12 22C17.514 22 22 17.514 22 12C22 6.486 17.514 2 12 2Z" fill="#F2F3F4"/>
<mask id="mask0_125_1628" style="mask-type:luminance" maskUnits="userSpaceOnUse" x="2" y="2" width="20" height="20">
<path fill-rule="evenodd" clip-rule="evenodd" d="M15 13H13V15C13 15.55 12.55 16 12 16C11.45 16 11 15.55 11 15V13H9C8.45 13 8 12.55 8 12C8 11.45 8.45 11 9 11H11V9C11 8.45 11.45 8 12 8C12.55 8 13 8.45 13 9V11H15C15.55 11 16 11.45 16 12C16 12.55 15.55 13 15 13ZM12 2C6.486 2 2 6.486 2 12C2 17.514 6.486 22 12 22C17.514 22 22 17.514 22 12C22 6.486 17.514 2 12 2Z" fill="white"/>
</mask>
<g mask="url(#mask0_125_1628)">
</g>
</svg>
