<svg width="18" height="18" viewBox="0 0 18 18" fill="none" xmlns="http://www.w3.org/2000/svg">
<path fill-rule="evenodd" clip-rule="evenodd" d="M9 7.87498C8.37975 7.87498 7.875 8.37973 7.875 8.99998C7.875 9.62023 8.37975 10.125 9 10.125C9.62025 10.125 10.125 9.62023 10.125 8.99998C10.125 8.37973 9.62025 7.87498 9 7.87498ZM9 11.625C7.5525 11.625 6.375 10.4475 6.375 8.99998C6.375 7.55248 7.5525 6.37498 9 6.37498C10.4475 6.37498 11.625 7.55248 11.625 8.99998C11.625 10.4475 10.4475 11.625 9 11.625ZM16.401 8.62648C15.9218 7.79248 13.2795 3.61198 8.79675 3.75223C4.6515 3.85798 2.2395 7.51048 1.599 8.62648C1.467 8.85823 1.467 9.14173 1.599 9.37348C2.0715 10.1962 4.6215 14.25 9.01875 14.25C9.0795 14.25 9.141 14.2492 9.20325 14.2477C13.3485 14.142 15.7605 10.4895 16.401 9.37348C16.533 9.14173 16.533 8.85823 16.401 8.62648Z" fill="#F2F3F4"/>
<mask id="mask0_222_3281" style="mask-type:luminance" maskUnits="userSpaceOnUse" x="1" y="3" width="16" height="12">
<path fill-rule="evenodd" clip-rule="evenodd" d="M9 7.87498C8.37975 7.87498 7.875 8.37973 7.875 8.99998C7.875 9.62023 8.37975 10.125 9 10.125C9.62025 10.125 10.125 9.62023 10.125 8.99998C10.125 8.37973 9.62025 7.87498 9 7.87498ZM9 11.625C7.5525 11.625 6.375 10.4475 6.375 8.99998C6.375 7.55248 7.5525 6.37498 9 6.37498C10.4475 6.37498 11.625 7.55248 11.625 8.99998C11.625 10.4475 10.4475 11.625 9 11.625ZM16.401 8.62648C15.9218 7.79248 13.2795 3.61198 8.79675 3.75223C4.6515 3.85798 2.2395 7.51048 1.599 8.62648C1.467 8.85823 1.467 9.14173 1.599 9.37348C2.0715 10.1962 4.6215 14.25 9.01875 14.25C9.0795 14.25 9.141 14.2492 9.20325 14.2477C13.3485 14.142 15.7605 10.4895 16.401 9.37348C16.533 9.14173 16.533 8.85823 16.401 8.62648Z" fill="white"/>
</mask>
<g mask="url(#mask0_222_3281)">
</g>
</svg>
