<svg width="319" height="164" viewBox="0 0 319 164" fill="none" xmlns="http://www.w3.org/2000/svg">
<g clip-path="url(#clip0_84_1701)">
<path d="M74.7388 18.1464H31.7089C27.2981 18.1464 23.6714 21.7073 23.6714 26.1464C23.6714 30.5366 27.249 34.1464 31.7089 34.1464H67.1914L72.0923 38.5854V34.1464H74.7878C79.1987 34.1464 82.8253 30.5854 82.8253 26.1464C82.7273 21.7073 79.1496 18.1464 74.7388 18.1464Z" fill="#2B2B2B"/>
<path d="M35.5805 25.0244C36.1196 24.5366 36.5116 23.8537 36.5116 23.0732C36.5116 21.6586 35.3844 20.5366 33.9632 20.5366C32.5419 20.5366 31.4147 21.6586 31.4147 23.0732C31.4147 23.8537 31.7578 24.5366 32.3459 25.0244C30.5325 25.7074 29.2583 27.4147 29.2583 29.4147C29.2583 32 38.668 32 38.668 29.4147C38.668 27.4147 37.3938 25.7074 35.5805 25.0244Z" fill="#5A5A5A"/>
<path d="M75.2778 22.4391H44.4511C44.3041 22.4391 44.2061 22.3415 44.2061 22.1952C44.2061 22.0489 44.3041 21.9513 44.4511 21.9513H75.2778C75.4248 21.9513 75.5229 22.0489 75.5229 22.1952C75.5229 22.3415 75.4248 22.4391 75.2778 22.4391Z" fill="#DADBDC"/>
<path d="M70.4749 29.6586H44.4511C44.3041 29.6586 44.2061 29.561 44.2061 29.4147C44.2061 29.2683 44.3041 29.1708 44.4511 29.1708H70.5239C70.6709 29.1708 70.769 29.2683 70.769 29.4147C70.72 29.561 70.6219 29.6586 70.4749 29.6586Z" fill="#DADBDC"/>
<path d="M63.4176 26.2927H44.4511C44.3041 26.2927 44.2061 26.1952 44.2061 26.0488C44.2061 25.9025 44.3041 25.8049 44.4511 25.8049H63.4176C63.5646 25.8049 63.6627 25.9025 63.6627 26.0488C63.6627 26.1464 63.5156 26.2927 63.4176 26.2927Z" fill="#DADBDC"/>
<path d="M75.2777 26.2927H65.7699C65.6229 26.2927 65.5249 26.1952 65.5249 26.0488C65.5249 25.9025 65.6229 25.8049 65.7699 25.8049H75.2777C75.4247 25.8049 75.5228 25.9025 75.5228 26.0488C75.5228 26.1464 75.4247 26.2927 75.2777 26.2927Z" fill="#DADBDC"/>
<path d="M37.0019 28.6829C36.8058 28.6829 36.6098 28.6342 36.4628 28.4878L34.6004 26.6342C34.3064 26.3415 34.3064 25.9025 34.6004 25.6098C34.8945 25.3171 35.3356 25.3171 35.6296 25.6098L36.9529 26.9268L40.5305 23.3659C40.8246 23.0732 41.2657 23.0732 41.5597 23.3659C41.8538 23.6586 41.8538 24.0976 41.5597 24.3903L37.492 28.439C37.3939 28.6342 37.1979 28.6829 37.0019 28.6829Z" fill="#DADBDC"/>
<path d="M266.658 59.7074H310.815C315.373 59.7074 319.049 63.3659 319.049 67.9025C319.049 72.4391 315.373 76.0976 310.815 76.0976H274.451L269.452 80.6342V76.0976H266.707C262.149 76.0976 258.474 72.4391 258.474 67.9025C258.425 63.3659 262.1 59.7074 266.658 59.7074Z" fill="#5A5A5A"/>
<path d="M309.786 66.683C310.325 66.1952 310.717 65.5123 310.717 64.7318C310.717 63.3171 309.59 62.1952 308.169 62.1952C306.747 62.1952 305.62 63.3171 305.62 64.7318C305.62 65.5123 305.963 66.1952 306.551 66.683C304.738 67.3659 303.464 69.0732 303.464 71.0732C303.464 73.6586 312.874 73.6586 312.874 71.0732C312.923 69.0732 311.599 67.3171 309.786 66.683Z" fill="#2B2B2B"/>
<path d="M313.658 68.0977H312.432V66.8782C312.432 66.7318 312.334 66.6343 312.187 66.6343H311.06C310.913 66.6343 310.815 66.7318 310.815 66.8782V68.0977H309.59C309.443 68.0977 309.345 68.1953 309.345 68.3416V69.4635C309.345 69.6099 309.443 69.7074 309.59 69.7074H310.815V70.927C310.815 71.0733 310.913 71.1709 311.06 71.1709H312.187C312.334 71.1709 312.432 71.0733 312.432 70.927V69.7074H313.658C313.805 69.7074 313.903 69.6099 313.903 69.4635V68.3416C313.903 68.1953 313.805 68.0977 313.658 68.0977Z" fill="#DADBDC"/>
<path d="M299.641 64.5855H268.814C268.667 64.5855 268.569 64.4879 268.569 64.3416C268.569 64.1952 268.667 64.0977 268.814 64.0977H299.641C299.788 64.0977 299.886 64.1952 299.886 64.3416C299.886 64.4879 299.739 64.5855 299.641 64.5855Z" fill="#DADBDC"/>
<path d="M294.838 71.7562H268.766C268.619 71.7562 268.521 71.6587 268.521 71.5123C268.521 71.366 268.619 71.2684 268.766 71.2684H294.838C294.985 71.2684 295.083 71.366 295.083 71.5123C295.083 71.6587 294.985 71.7562 294.838 71.7562Z" fill="#DADBDC"/>
<path d="M287.732 68.3904H268.766C268.619 68.3904 268.521 68.2928 268.521 68.1465C268.521 68.0001 268.619 67.9026 268.766 67.9026H287.732C287.879 67.9026 287.977 68.0001 287.977 68.1465C287.977 68.2928 287.879 68.3904 287.732 68.3904Z" fill="#DADBDC"/>
<path d="M299.641 68.3904H290.134C289.987 68.3904 289.889 68.2928 289.889 68.1465C289.889 68.0001 289.987 67.9026 290.134 67.9026H299.641C299.789 67.9026 299.887 68.0001 299.887 68.1465C299.887 68.2928 299.74 68.3904 299.641 68.3904Z" fill="#DADBDC"/>
<path d="M211.18 12.5366H241.615C244.751 12.5366 247.3 15.0732 247.3 18.1952C247.3 21.3171 244.751 23.8537 241.615 23.8537H213.092H211.18C208.044 23.8537 205.495 21.3171 205.495 18.1952C205.495 15.0732 208.044 12.5366 211.18 12.5366Z" fill="#2B2B2B"/>
<path d="M238.135 16.2927H214.562C214.415 16.2927 214.317 16.1952 214.317 16.0488C214.317 15.9025 214.415 15.8049 214.562 15.8049H238.135C238.282 15.8049 238.38 15.9025 238.38 16.0488C238.38 16.1952 238.282 16.2927 238.135 16.2927Z" fill="#DADBDC"/>
<path d="M234.46 20.5855H214.562C214.415 20.5855 214.317 20.4879 214.317 20.3416C214.317 20.1952 214.415 20.0977 214.562 20.0977H234.46C234.607 20.0977 234.705 20.1952 234.705 20.3416C234.705 20.4391 234.607 20.5855 234.46 20.5855Z" fill="#DADBDC"/>
<path d="M229.069 18.5855H214.562C214.415 18.5855 214.317 18.4879 214.317 18.3416C214.317 18.1952 214.415 18.0977 214.562 18.0977H229.069C229.216 18.0977 229.314 18.1952 229.314 18.3416C229.314 18.4879 229.167 18.5855 229.069 18.5855Z" fill="#DADBDC"/>
<path d="M238.135 18.5855H230.882C230.735 18.5855 230.637 18.4879 230.637 18.3416C230.637 18.1952 230.735 18.0977 230.882 18.0977H238.135C238.282 18.0977 238.38 18.1952 238.38 18.3416C238.38 18.4879 238.282 18.5855 238.135 18.5855Z" fill="#DADBDC"/>
<path d="M5.04793 92.4391H32.1009C34.8945 92.4391 37.1489 94.683 37.1489 97.4635C37.1489 100.244 34.8945 102.488 32.1009 102.488H6.71424H5.04793C2.25442 102.488 0 100.244 0 97.4635C0 94.683 2.25442 92.4391 5.04793 92.4391Z" fill="#5A5A5A"/>
<path d="M29.0134 95.8538H8.03753C7.8905 95.8538 7.79248 95.7562 7.79248 95.6099C7.79248 95.4635 7.8905 95.366 8.03753 95.366H29.0134C29.1604 95.366 29.2585 95.4635 29.2585 95.6099C29.2585 95.7074 29.1604 95.8538 29.0134 95.8538Z" fill="#DADBDC"/>
<path d="M25.7788 99.6099H8.03753C7.8905 99.6099 7.79248 99.5123 7.79248 99.366C7.79248 99.2196 7.8905 99.1221 8.03753 99.1221H25.7298C25.8768 99.1221 25.9748 99.2196 25.9748 99.366C25.9748 99.5123 25.9258 99.6099 25.7788 99.6099Z" fill="#DADBDC"/>
<path d="M20.9269 97.8538H8.03753C7.8905 97.8538 7.79248 97.7562 7.79248 97.6099C7.79248 97.4635 7.8905 97.366 8.03753 97.366H20.9269C21.0739 97.366 21.172 97.4635 21.172 97.6099C21.172 97.7562 21.0739 97.8538 20.9269 97.8538Z" fill="#DADBDC"/>
<path d="M29.0136 97.8538H22.5444C22.3973 97.8538 22.2993 97.7562 22.2993 97.6099C22.2993 97.4635 22.3973 97.366 22.5444 97.366H29.0136C29.1606 97.366 29.2586 97.4635 29.2586 97.6099C29.2586 97.7562 29.1606 97.8538 29.0136 97.8538Z" fill="#DADBDC"/>
<path d="M204.907 119.561H156.878C156.731 119.561 156.633 119.463 156.633 119.317C156.633 119.171 156.731 119.073 156.878 119.073H204.907C205.054 119.073 205.152 119.171 205.152 119.317C205.152 119.415 205.054 119.561 204.907 119.561Z" fill="#DADBDC"/>
<path d="M204.907 130.78H164.327C164.18 130.78 164.082 130.683 164.082 130.537C164.082 130.39 164.18 130.293 164.327 130.293H204.907C205.054 130.293 205.152 130.39 205.152 130.537C205.152 130.683 205.054 130.78 204.907 130.78Z" fill="#DADBDC"/>
<path d="M204.907 125.512H175.354C175.207 125.512 175.109 125.415 175.109 125.268C175.109 125.122 175.207 125.024 175.354 125.024H204.907C205.054 125.024 205.152 125.122 205.152 125.268C205.152 125.415 205.054 125.512 204.907 125.512Z" fill="#DADBDC"/>
<path d="M171.679 125.512H156.878C156.731 125.512 156.633 125.415 156.633 125.268C156.633 125.122 156.731 125.024 156.878 125.024H171.679C171.826 125.024 171.924 125.122 171.924 125.268C171.924 125.415 171.826 125.512 171.679 125.512Z" fill="#DADBDC"/>
<path d="M150.556 137.366H102.527C102.38 137.366 102.282 137.268 102.282 137.122C102.282 136.976 102.38 136.878 102.527 136.878H150.556C150.703 136.878 150.801 136.976 150.801 137.122C150.801 137.22 150.703 137.366 150.556 137.366Z" fill="#DADBDC"/>
<path d="M143.106 148.585H102.527C102.38 148.585 102.282 148.488 102.282 148.341C102.282 148.195 102.38 148.098 102.527 148.098H143.106C143.253 148.098 143.351 148.195 143.351 148.341C143.351 148.488 143.253 148.585 143.106 148.585Z" fill="#DADBDC"/>
<path d="M132.03 143.317H102.478C102.331 143.317 102.233 143.219 102.233 143.073C102.233 142.927 102.331 142.829 102.478 142.829H132.03C132.177 142.829 132.275 142.927 132.275 143.073C132.275 143.219 132.177 143.317 132.03 143.317Z" fill="#DADBDC"/>
<path d="M150.556 143.317H135.755C135.608 143.317 135.51 143.219 135.51 143.073C135.51 142.927 135.608 142.829 135.755 142.829H150.556C150.703 142.829 150.801 142.927 150.801 143.073C150.801 143.219 150.703 143.317 150.556 143.317Z" fill="#DADBDC"/>
<path d="M186.774 92V91.9512L193.88 67.3659H193.831C194.174 66.7317 194.958 65.4146 196.674 64.2439C199.614 62.1951 199.957 58.8293 199.957 58.8293C201.525 57.3171 203.29 56.0488 204.858 54.5854C205.005 54.439 205.201 54.2439 205.25 54.0488C205.299 53.8049 205.201 53.561 205.054 53.3659C204.221 52.1463 202.702 52 201.476 52.5366C200.741 52.878 200.104 53.3171 199.467 53.8537C199.173 54.0976 198.193 54.7805 197.85 55.2195L203.486 43.2195C203.976 42.1463 203.682 40.9268 202.751 40.5366C202.31 40.3415 201.771 40.3415 201.329 40.5854C201.035 40.7317 200.79 40.9268 200.545 41.2195C200.545 41.122 200.594 41.0732 200.594 41.0732C193.978 35.561 185.843 54.3902 185.843 54.3902L183.539 59.8049L163.887 96.0488C161.093 101.317 163.249 107.805 168.591 110.39C168.689 110.439 168.738 110.439 168.836 110.488C170.405 111.415 172.218 111.902 174.178 111.902H212.798L221.129 92.1951L186.774 92Z" fill="#FEC29E"/>
<path opacity="0.17" d="M180.157 111.854C178.932 111.805 179.667 111.854 180.157 111.854V111.854Z" fill="#FF887C"/>
<path opacity="0.17" d="M186.823 91.9512L185.695 95.8536C185.401 96.9268 185.058 98.0975 184.715 99.2682L183.343 103.951C183.147 104.537 182.902 105.122 182.657 105.658C181.481 109.122 180.5 111.805 180.5 111.805L194.419 92C190.939 92.0487 190.155 91.9512 186.823 91.9512Z" fill="#FF887C"/>
<path d="M192.41 56.3903C192.361 56.3903 192.312 56.3903 192.263 56.3415C192.165 56.2439 192.116 56.0976 192.214 56C194.664 52.683 197.997 54.4878 198.046 54.4878C198.144 54.5366 198.193 54.683 198.144 54.8293C198.095 54.9269 197.948 54.9756 197.801 54.9269C197.703 54.8781 194.811 53.3171 192.606 56.2927C192.557 56.3903 192.459 56.3903 192.41 56.3903Z" fill="#FB8E77"/>
<path d="M200.741 41.0732C199.712 42.3415 198.781 43.7074 197.948 45.0732C197.507 45.7561 197.164 46.4878 196.821 47.2196C196.526 47.9513 196.232 48.7318 196.281 49.5122C196.281 49.6586 196.183 49.7561 196.036 49.7561C195.889 49.7561 195.791 49.6586 195.791 49.5122C195.742 48.5854 196.085 47.8049 196.379 47.0244C196.723 46.2439 197.115 45.5122 197.556 44.8293C198.438 43.4147 199.418 42.0976 200.447 40.8293C200.496 40.7805 200.594 40.7805 200.643 40.8293C200.79 40.9269 200.79 41.0244 200.741 41.0732Z" fill="#FB8E77"/>
<path d="M199.026 40.3903C198.389 40.8293 197.801 41.4146 197.261 42.0488C196.722 42.6829 196.281 43.3171 195.889 44.0488C195.497 44.7317 195.154 45.4634 194.811 46.2439C194.664 46.6342 194.517 47.0244 194.37 47.3659L194.027 48.5366C193.978 48.6829 193.831 48.7317 193.733 48.6829C193.586 48.6342 193.537 48.4878 193.586 48.3902L193.978 47.2195C194.125 46.8293 194.272 46.439 194.419 46.0488C194.762 45.2683 195.105 44.5366 195.546 43.8537C195.987 43.1707 196.477 42.4878 197.016 41.8537C197.555 41.2195 198.144 40.6342 198.879 40.1951C198.928 40.1463 199.026 40.1463 199.075 40.2439C199.124 40.2439 199.124 40.3415 199.026 40.3903Z" fill="#FB8E77"/>
<path d="M196.33 40.5853C195.399 41.561 194.517 42.6341 193.782 43.7561C193.39 44.3414 193.047 44.878 192.753 45.5122C192.459 46.0975 192.214 46.7317 192.116 47.3658C192.116 47.5122 191.969 47.6097 191.822 47.561C191.675 47.5122 191.577 47.4146 191.626 47.2683C191.773 46.5366 192.018 45.9024 192.312 45.2683C192.606 44.6341 192.998 44.0488 193.39 43.5122C194.174 42.3902 195.105 41.3658 196.085 40.3902C196.134 40.3414 196.232 40.3414 196.281 40.3902C196.428 40.439 196.428 40.5366 196.33 40.5853Z" fill="#FB8E77"/>
<path d="M275.97 127.805L266.512 102.098C265.384 96.439 259.993 92.1951 253.524 92.1951L227.059 92L197.213 92.0976V111.902H206.476L201.722 163.512L267.394 163.902L267.002 128.927L275.97 127.805Z" fill="#2B2B2B"/>
<path opacity="0.05" d="M226.961 92.1951L227.01 91.9512L197.164 92.0487V111.854H206.426L206.475 111.317C206.475 100.878 215.591 92.3902 226.961 92.1951Z" fill="#1B1B25"/>
<path opacity="0.18" d="M189.273 63.5122C189.273 63.5122 190.94 77.6585 191.038 77.3171C191.136 76.9756 193.929 67.3659 193.929 67.3659L189.273 63.5122Z" fill="#FF887C"/>
<path d="M228.334 135.171L225.834 122.585L223.923 112.878C223.678 111.756 222.551 110.976 221.423 111.219L211.72 113.171C210.592 113.415 209.808 114.537 210.053 115.658L212.014 125.415L213.582 133.171L214.513 137.951C214.758 139.073 215.885 139.854 217.013 139.61L222.747 138.488L226.716 137.707C227.844 137.463 228.579 136.341 228.334 135.171Z" fill="#1B1B25"/>
<path d="M279.891 146.78L275.529 127.854L255.681 130.293L256.759 135.122L256.661 135.073L235.097 129.756V129.805C234.509 129.512 233.382 128.78 232.401 127.317C230.588 124.634 227.549 124.536 227.549 124.536C226.961 123.902 226.422 123.268 225.883 122.634L226.373 125.171L226.226 125.219C224.854 125.951 223.286 126.244 221.766 126.146C218.924 125.902 214.219 125.561 212.259 125.415C211.671 125.366 211.082 125.658 210.837 126.195C208.044 132 220.002 137.317 222.698 138.439C222.747 138.439 222.747 138.488 222.796 138.488C222.845 138.488 222.894 138.536 222.894 138.536C222.943 138.536 222.943 138.585 222.992 138.585C223.041 138.585 223.041 138.634 223.09 138.634C223.139 138.634 223.139 138.634 223.188 138.683C223.188 138.683 223.188 138.683 223.237 138.683C223.286 138.683 223.286 138.683 223.286 138.683L227.942 140.439L264.894 158.536C265.237 158.683 265.581 158.829 265.924 158.975C267.737 159.805 269.795 160.049 271.854 159.561C277.588 158.244 281.214 152.536 279.891 146.78Z" fill="#FEC29E"/>
<path opacity="0.17" d="M278.47 140.683L255.681 130.293C256.465 133.61 255.975 132.146 256.661 135.073L258.229 135.463C264.796 135.902 278.47 140.683 278.47 140.683Z" fill="#FF887C"/>
<path opacity="0.35" d="M253.819 130.537C253.721 130.537 253.623 130.439 253.574 130.341L250.731 116.585C250.682 116.439 250.78 116.341 250.927 116.293C251.074 116.244 251.172 116.341 251.221 116.488L254.015 130L263.62 128.78C263.767 128.78 263.865 128.878 263.914 128.976C263.914 129.122 263.816 129.219 263.718 129.268L253.819 130.537C253.868 130.488 253.819 130.537 253.819 130.537Z" fill="#1B1B25"/>
<path opacity="0.17" d="M278.617 141.463C278.617 141.561 278.666 141.61 278.666 141.658C278.666 141.61 278.666 141.561 278.617 141.463Z" fill="#FF887C"/>
<path opacity="0.17" d="M278.47 140.683C278.47 140.683 278.519 140.927 278.568 141.219C278.568 141.073 278.519 140.878 278.47 140.683Z" fill="#FF887C"/>
<path opacity="0.17" d="M278.568 141.171C278.568 141.268 278.617 141.366 278.617 141.415C278.617 141.366 278.617 141.268 278.568 141.171Z" fill="#FF887C"/>
<path d="M251.564 41.2195C250.976 37.0732 247.153 34.1463 242.938 34.5854C241.811 34.7317 240.782 35.0732 239.9 35.6097C238.527 33.4146 235.979 32.0488 233.234 32.3415C231.666 32.5366 230.294 33.2195 229.216 34.2439C227.696 33.4634 225.932 33.1219 224.119 33.3658C219.12 33.9024 215.542 38.3902 216.13 43.3658C216.375 45.7073 217.502 47.7073 219.169 49.1219L217.306 58.9268C216.767 61.7561 218.63 64.439 221.472 64.9756L243.33 69.0732C246.173 69.6097 248.868 67.7561 249.407 64.9268L252.985 45.8536C253.377 44.0975 252.789 42.3902 251.564 41.2195Z" fill="#1B1B25"/>
<path d="M219.708 46.5854C219.61 46.5854 219.561 46.5366 219.512 46.4879C215.591 40.3415 220.982 36.3903 221.031 36.3415C221.129 36.2439 221.276 36.2927 221.374 36.3903C221.472 36.4879 221.423 36.6342 221.325 36.7318C221.129 36.8781 216.277 40.4391 219.904 46.1952C219.953 46.2927 219.953 46.4391 219.806 46.5366C219.806 46.5854 219.757 46.5854 219.708 46.5854Z" fill="#FCF0E3"/>
<path d="M248.035 60.439L247.545 60.3414L242.693 50C241.517 49.8536 240.389 49.4146 239.409 48.7317C238.478 49.7073 237.204 50.439 235.734 50.5853C233.969 50.7805 232.303 50.1951 231.078 49.0732C229.754 50.2439 228.039 51.0244 226.128 51.2683C223.922 51.5122 221.864 50.9756 220.149 49.8536L216.767 67.7561C216.326 70.2439 216.816 72.6341 217.992 74.6341C219.168 77.561 221.766 79.9024 225.05 80.6341V92.439C225.05 96.5366 228.431 99.9024 232.548 99.9024H234.9C239.017 99.9024 242.399 96.5366 242.399 92.439V79.0244C243.624 77.7073 244.506 76.0488 244.849 74.1463L245.486 70.878L245.976 70.9756C248.819 71.5122 251.564 69.6097 252.103 66.7805L252.152 66.4878C252.789 63.7073 250.877 60.9756 248.035 60.439Z" fill="#FEC29E"/>
<path opacity="0.32" d="M244.457 70.4878L244.016 72.8293C242.987 78.1951 237.792 81.7561 232.401 80.7317L224.756 79.3171C221.815 78.7805 219.463 77.0244 218.042 74.6341C219.267 77.7073 222.011 80.0975 225.54 80.7317L225.834 80.7805C227.059 83.2683 229.608 85.0244 232.597 85.0244H234.999C238.527 85.0244 241.517 82.5366 242.301 79.2683C243.624 77.9024 244.604 76.1463 244.947 74.1463L245.585 70.878L244.457 70.4878Z" fill="#FF887C"/>
<path d="M248.476 67.4635C248.427 67.4635 248.378 67.4635 248.329 67.4147L246.418 65.9513C246.369 65.9025 246.32 65.8537 246.32 65.7561C246.32 65.7074 246.32 65.6098 246.418 65.561L248.77 63.3659C248.868 63.2683 249.015 63.2683 249.113 63.3659C249.211 63.4635 249.211 63.6098 249.113 63.7074L246.957 65.7074L248.623 67.0244C248.721 67.122 248.77 67.2683 248.672 67.3659C248.623 67.4147 248.525 67.4635 248.476 67.4635Z" fill="#FB8E77"/>
<path d="M236.322 58.3902C235.93 58.3902 235.587 58.1463 235.195 57.9512C234.803 57.7561 234.411 57.5609 234.117 57.4146C233.773 57.2683 233.381 57.0731 232.989 56.9268C232.597 56.7804 232.156 56.6341 231.96 56.3414C231.715 56.0975 231.764 55.6585 232.303 55.4146C232.842 55.1219 233.872 55.0731 234.999 55.6097C236.126 56.1463 236.763 56.9756 236.861 57.5609C236.959 58.0975 236.714 58.3902 236.322 58.3902Z" fill="#1B1B25"/>
<path d="M220.737 57.0243C221.031 57.2194 221.472 57.2194 221.913 57.2682C222.354 57.317 222.746 57.3658 223.139 57.4146C223.531 57.4633 223.923 57.5609 224.364 57.6097C224.805 57.6585 225.197 57.756 225.54 57.7072C225.883 57.6097 226.03 57.317 225.736 56.8292C225.442 56.3902 224.56 55.8048 223.335 55.6097C222.109 55.4633 221.129 55.756 220.737 56.0975C220.345 56.5365 220.443 56.878 220.737 57.0243Z" fill="#1B1B25"/>
<path d="M232.744 62.5365C233.087 62.5853 233.43 62.3902 233.479 62.0487L233.626 61.2682C233.675 60.9268 233.479 60.6341 233.136 60.5853H233.087C232.744 60.5365 232.45 60.7316 232.401 61.0731L232.254 61.8536C232.205 62.1951 232.401 62.4877 232.744 62.5365Z" fill="#1B1B25"/>
<path d="M222.158 60.8292C222.501 60.878 222.844 60.6829 222.893 60.3414L223.04 59.561C223.089 59.2195 222.893 58.9268 222.55 58.878H222.501C222.158 58.8292 221.864 59.0244 221.815 59.3658L221.668 60.1463C221.619 60.4878 221.864 60.7805 222.158 60.8292Z" fill="#1B1B25"/>
<path opacity="0.17" d="M233.185 65.3658L235.342 65.6097C235.734 65.6585 236.126 65.3658 236.175 64.9268V64.878C236.224 64.4878 235.93 64.0975 235.489 64.0488L233.332 63.8049C232.94 63.7561 232.548 64.0488 232.499 64.4878V64.5366C232.45 64.9268 232.744 65.3171 233.185 65.3658Z" fill="#FF887C"/>
<path opacity="0.17" d="M218.875 63.1219L221.031 63.3658C221.423 63.4146 221.815 63.1219 221.864 62.6829V62.6341C221.913 62.2439 221.619 61.8536 221.178 61.8049L219.022 61.561C218.63 61.5122 218.237 61.8049 218.188 62.2439V62.2927C218.139 62.6829 218.433 63.0732 218.875 63.1219Z" fill="#FF887C"/>
<path d="M225.197 74.1464C225.099 74.1464 225.05 74.0976 225.001 74.0488C224.903 73.9512 224.952 73.8049 225.05 73.7073C226.079 72.9756 227.206 73.3659 227.696 73.7073C227.794 73.8049 227.843 73.9512 227.745 74.0488C227.647 74.1464 227.5 74.1951 227.402 74.0976C227.353 74.0488 226.324 73.3659 225.344 74.0976C225.295 74.1463 225.246 74.1464 225.197 74.1464Z" fill="#FB8E77"/>
<path d="M226.863 67.2195L232.597 66.3903L231.96 68.3903C231.568 69.6585 230.391 70.5366 229.019 70.5366C227.99 70.5366 227.108 69.7561 227.01 68.7317L226.863 67.2195Z" fill="#DADBDC"/>
<path d="M228.333 65.1707H228.284L226.52 64.7316C225.785 64.5365 225.148 63.9999 224.854 63.317C224.56 62.5853 224.609 61.8048 224.952 61.1219L227.647 56.2926C227.696 56.195 227.843 56.1463 227.99 56.195C228.088 56.2438 228.137 56.3902 228.088 56.5365L225.393 61.3658C225.099 61.9024 225.05 62.5365 225.295 63.1219C225.54 63.7072 226.03 64.0975 226.618 64.2926L228.382 64.7316C228.529 64.7804 228.578 64.878 228.578 65.0243C228.529 65.1219 228.431 65.1707 228.333 65.1707Z" fill="#FB8E77"/>
<path d="M145.116 100.244L125.463 64.0488L123.16 58.6341C123.16 58.6341 115.024 39.8049 108.408 45.3171C108.408 45.3171 108.408 45.3658 108.457 45.4634C108.212 45.1707 107.967 44.9756 107.673 44.8293C107.232 44.6341 106.693 44.5854 106.251 44.7805C105.369 45.2195 105.026 46.439 105.516 47.4634L111.152 59.4634C110.858 59.0244 109.829 58.3415 109.535 58.0976C108.898 57.561 108.261 57.1219 107.526 56.7805C106.251 56.2439 104.732 56.3902 103.948 57.6097C103.801 57.8049 103.703 58.0488 103.752 58.2927C103.801 58.5366 103.997 58.6829 104.144 58.8293C105.761 60.2927 107.477 61.561 109.045 63.0732C109.045 63.0732 109.388 66.439 112.329 68.4878C114.044 69.6585 114.828 70.9756 115.171 71.6097H115.122L122.228 96.2439L111.839 96.3902V116.098H134.775C136.735 116.098 138.548 115.561 140.117 114.683C140.215 114.634 140.264 114.634 140.362 114.585C145.753 112 147.86 105.512 145.116 100.244Z" fill="#FEC29E"/>
<path opacity="0.17" d="M128.501 116.146C130.756 116.098 128.501 116.146 128.501 116.146C128.501 116.146 123.159 101.854 122.228 96.2439C118.7 96.2439 118.16 96.3902 114.632 96.3902L128.501 116.146Z" fill="#FF887C"/>
<path d="M116.592 60.6829C116.494 60.6829 116.445 60.6341 116.396 60.5853C114.191 57.6097 111.348 59.1219 111.201 59.2195C111.103 59.2682 110.956 59.2195 110.858 59.1219C110.809 59.0243 110.858 58.878 110.956 58.7804C111.005 58.7804 114.289 56.9756 116.788 60.2926C116.886 60.3902 116.837 60.5365 116.739 60.6341C116.69 60.6829 116.641 60.6829 116.592 60.6829Z" fill="#FB8E77"/>
<path d="M108.506 45.1706C109.094 45.756 109.633 46.3901 110.172 47.0243C110.662 47.6584 111.152 48.3414 111.593 49.0731C112.035 49.8048 112.378 50.5365 112.672 51.317C112.966 52.0974 113.162 52.9267 113.211 53.8048C113.211 53.9511 113.113 54.0487 112.966 54.0487C112.819 54.0487 112.721 53.9511 112.721 53.8048C112.672 53.0243 112.525 52.2438 112.231 51.4633C111.937 50.6828 111.593 49.9511 111.201 49.2682C110.809 48.5365 110.319 47.9023 109.829 47.2194C109.339 46.5853 108.8 45.9511 108.261 45.3657C108.212 45.317 108.212 45.2194 108.261 45.1706C108.359 45.1218 108.408 45.1218 108.506 45.1706Z" fill="#FB8E77"/>
<path d="M110.123 44.2438C110.907 44.6341 111.496 45.2682 112.035 45.9024C112.574 46.5365 113.064 47.2682 113.456 47.9999C113.848 48.7316 114.191 49.5121 114.534 50.2438L114.975 51.4146L115.367 52.5853C115.416 52.7316 115.318 52.8292 115.22 52.878C115.073 52.9268 114.975 52.8292 114.926 52.7316L114.534 51.5609L114.093 50.3902C113.799 49.6097 113.456 48.878 113.064 48.1463C112.672 47.4146 112.231 46.7316 111.741 46.0975C111.25 45.4634 110.662 44.878 109.976 44.4877C109.878 44.439 109.878 44.3414 109.927 44.2926C109.976 44.2438 110.074 44.1951 110.123 44.2438Z" fill="#FB8E77"/>
<path d="M112.818 44.6828C113.358 45.1218 113.848 45.6097 114.338 46.1462C114.779 46.6828 115.22 47.2194 115.612 47.8048C116.004 48.3901 116.347 48.9755 116.641 49.6097C116.935 50.2438 117.18 50.8779 117.376 51.5609C117.425 51.7072 117.327 51.8048 117.229 51.8536C117.082 51.9023 116.984 51.8048 116.935 51.7072C116.739 51.0731 116.543 50.4389 116.298 49.8048C116.053 49.1706 115.71 48.5853 115.367 47.9999C115.024 47.4145 114.632 46.8779 114.191 46.3414C113.75 45.8048 113.26 45.317 112.769 44.8779C112.72 44.8292 112.72 44.7316 112.769 44.6828C112.671 44.634 112.769 44.634 112.818 44.6828Z" fill="#FB8E77"/>
<path opacity="0.18" d="M114.191 70.2927L121.787 69.3658L117.082 78.6341C117.082 78.6341 115.71 71.7561 114.191 70.2927Z" fill="#FF887C"/>
<path d="M83.7071 96.439C83.6091 96.439 83.4621 96.439 83.3641 96.439H59.3986C54.2037 96.439 49.7439 99.7073 48.0285 104.244L47.9795 104.341V104.39L37.7856 132.049L47.2444 133.219V163.951H98.7529L102.625 116.146H111.593V96.3414L83.7071 96.439Z" fill="#DADBDC"/>
<path opacity="0.05" d="M111.838 96.3414L84.4912 96.439C94.7341 96.878 102.919 105.268 102.919 115.61L102.87 116.146H111.838V96.3414Z" fill="#1B1B25"/>
<path d="M102.282 117.463L92.5778 115.561C91.4506 115.317 90.3234 116.097 90.0784 117.219L88.167 126.927L85.6675 139.512C85.4225 140.634 86.2066 141.756 87.3339 142L91.3036 142.78L97.0377 143.902C98.1649 144.146 99.2921 143.366 99.5371 142.244L100.468 137.463L102.037 129.707L103.997 119.951C104.144 118.78 103.409 117.658 102.282 117.463Z" fill="#1B1B25"/>
<path d="M103.262 130.39C103.164 130.146 102.968 129.951 102.723 129.805C102.674 129.756 102.625 129.707 102.625 129.61C102.625 129.61 102.527 129.61 102.38 129.658C102.233 129.61 102.037 129.61 101.841 129.61C99.8802 129.756 95.2244 130.146 92.3328 130.341C90.7645 130.439 89.2453 130.146 87.873 129.415L87.628 129.317L88.1181 126.927C87.628 127.561 87.0889 128.146 86.5498 128.732C86.2557 128.732 84.6874 128.878 83.1681 130C82.629 130.39 82.0899 130.927 81.5999 131.61C81.0117 132.488 80.3746 133.073 79.8355 133.463C79.5415 133.707 79.2474 133.854 79.0024 133.951V133.902L57.4384 139.219L57.3404 139.268L58.4186 134.439L38.5699 132.049L34.2081 150.976C32.8848 156.732 36.4625 162.439 42.2456 163.756C44.304 164.244 46.3623 163.951 48.1757 163.171C48.5187 163.024 48.8618 162.927 49.2049 162.732L85.7166 144.829L90.6665 142.976C90.6665 142.976 90.8626 142.878 91.2056 142.732H91.1566C93.46 141.805 106.153 136.39 103.262 130.39Z" fill="#FEC29E"/>
<path opacity="0.17" d="M35.3845 145.756C35.3845 145.854 35.3354 145.902 35.3354 145.951C35.3354 145.902 35.3354 145.805 35.3845 145.756Z" fill="#FF887C"/>
<path opacity="0.17" d="M57.3405 139.366C57.7815 137.317 57.6345 137.512 58.3206 134.536L35.4824 144.976C35.4824 144.976 37.7368 144.293 40.8734 143.463C41.1675 143.366 41.4615 143.268 41.7556 143.171L57.3405 139.366Z" fill="#FF887C"/>
<path opacity="0.17" d="M35.4333 145.463C35.4333 145.561 35.3843 145.658 35.3843 145.756C35.3843 145.658 35.3843 145.561 35.4333 145.463Z" fill="#FF887C"/>
<path opacity="0.17" d="M35.5316 144.976C35.4826 145.171 35.4826 145.317 35.4336 145.463C35.4826 145.219 35.5316 144.976 35.5316 144.976Z" fill="#FF887C"/>
<path opacity="0.35" d="M60.1829 134.78C60.1339 134.78 60.1339 134.78 60.1829 134.78L55.8211 134.244C55.6741 134.244 55.576 134.097 55.6251 133.951C55.6251 133.805 55.7721 133.707 55.9191 133.756L60.0359 134.244L62.3393 119.756C62.3393 119.61 62.4863 119.512 62.6334 119.561C62.7804 119.561 62.8784 119.707 62.8294 119.854L60.526 134.585C60.3789 134.683 60.2809 134.78 60.1829 134.78Z" fill="#1B1B25"/>
<path opacity="0.08" d="M65.231 137.317L75.0328 137.073C76.8461 137.317 79.7376 135.659 79.4436 133.854L65.231 137.317Z" fill="#FF887C"/>
<path d="M96.0573 90.2438L92.7247 67.7072C92.3816 65.2194 91.6465 62.9267 90.6173 60.7804L92.4307 60.4877C92.4307 60.4877 91.1564 42.195 70.5726 46.5853C68.5632 46.3902 66.4559 46.3902 64.3485 46.7316C54.3506 48.195 47.3913 57.4633 48.8616 67.4145L50.822 80.5365C52.2922 90.4877 61.604 97.4145 71.6018 95.9511L94.293 92.6341C95.4692 92.3902 96.2534 91.3658 96.0573 90.2438Z" fill="#1B1B25"/>
<path d="M82.433 59.756C82.335 59.756 82.188 59.6584 82.188 59.5608C82.188 59.4145 82.286 59.3169 82.384 59.2682L89.0003 58.3901C89.0493 58.3901 89.0983 58.3413 89.1473 58.2925C89.1473 58.2925 89.1963 58.195 89.1963 58.1462C88.1181 52.195 82.6291 49.4633 82.5801 49.4145C82.482 49.3657 82.384 49.2194 82.482 49.073C82.5311 48.9755 82.6781 48.8779 82.8251 48.9755C82.8741 49.0243 88.6082 51.8535 89.7354 58.0486C89.7844 58.2438 89.7354 58.3901 89.6374 58.5852C89.5393 58.7316 89.3433 58.8291 89.1963 58.8779L82.433 59.756Z" fill="#FCF0E3"/>
<path d="M88.8041 61.0243L70.6707 63.9024L66.2599 57.4146C67.1421 64.6341 61.7511 69.317 61.7511 69.317C61.7511 69.317 61.7021 69.2194 61.6041 69.1219L61.457 69.1707C58.6145 69.7072 56.7522 72.4389 57.2423 75.2682C57.7814 78.0975 60.5259 79.9511 63.3684 79.4633L63.7115 79.4146C64.3486 82.1463 65.7208 84.4877 67.6322 86.2438V97.8048C67.6322 101.902 71.0138 105.268 75.1306 105.268C79.2473 105.268 82.629 101.902 82.629 97.8048V88.6828C85.6185 87.317 87.9709 84.9267 89.2942 82.0487C90.9115 79.3658 91.5976 76.0487 90.9605 72.7316L88.8041 61.0243Z" fill="#FEC29E"/>
<path opacity="0.32" d="M80.2277 88.2926C73.5135 89.5609 66.9953 85.6096 64.9859 79.2682C64.9369 79.0731 63.7117 79.317 63.7607 79.4633C64.3978 82.1462 65.8191 84.4877 67.7304 86.2438C68.0735 90.0487 71.3081 93.0243 75.1798 93.0243C78.0713 93.0243 80.5708 91.3657 81.796 89.0243C85.1777 87.756 87.8732 85.1706 89.2944 81.9999C87.3831 85.1706 84.1975 87.5609 80.2277 88.2926Z" fill="#FF887C"/>
<path d="M60.918 76.0486C60.869 76.0486 60.7709 75.9999 60.7219 75.9511C60.6239 75.8535 60.6729 75.7072 60.7709 75.6096L62.3882 74.3413L60.3299 72.3901C60.2318 72.2925 60.2318 72.1462 60.3299 72.0486C60.4279 71.9511 60.5749 71.9511 60.6729 72.0486L62.9764 74.195C63.0254 74.2438 63.0744 74.2925 63.0744 74.3901C63.0744 74.4389 63.0254 74.5364 62.9764 74.5852L61.114 75.9999C61.016 75.9999 60.967 76.0486 60.918 76.0486Z" fill="#FB8E77"/>
<path d="M73.9546 67.1219C74.1506 67.1219 74.3957 66.9755 74.6407 66.878C74.8858 66.7804 75.0818 66.634 75.2778 66.5365C75.4739 66.4389 75.7189 66.3414 75.964 66.2438C76.209 66.1462 76.454 66.0487 76.6011 65.9023C76.7481 65.756 76.6991 65.5121 76.405 65.3658C76.111 65.2194 75.4739 65.1706 74.7877 65.4633C74.1016 65.756 73.7585 66.2926 73.7095 66.6341C73.5625 66.9755 73.7585 67.1706 73.9546 67.1219Z" fill="#1B1B25"/>
<path d="M86.9421 64.878C86.7461 64.9267 86.501 64.878 86.207 64.8292C85.9619 64.7804 85.7169 64.7316 85.4719 64.6828C85.2758 64.6341 84.9818 64.6341 84.7367 64.5853C84.4917 64.5365 84.2466 64.5365 84.0506 64.4389C83.8546 64.3414 83.8546 64.0975 84.0996 63.8536C84.3446 63.6097 84.9328 63.4145 85.6679 63.5121C86.403 63.6097 86.8931 63.9999 87.0401 64.2926C87.2852 64.6341 87.1872 64.8292 86.9421 64.878Z" fill="#1B1B25"/>
<path d="M79.6396 77.2194C77.6303 77.2194 76.307 75.6584 76.258 75.6096C76.16 75.512 76.209 75.3657 76.307 75.2681C76.405 75.1706 76.5521 75.2194 76.6501 75.3169C76.7481 75.4145 78.6105 77.5608 81.2079 76.3901C81.355 76.3413 81.453 76.3901 81.551 76.4877C81.6 76.634 81.551 76.7316 81.453 76.8291C80.7668 77.1218 80.1787 77.2194 79.6396 77.2194Z" fill="#FB8E77"/>
<path d="M81.061 73.8048C80.963 73.8048 80.865 73.7072 80.816 73.6097C80.767 73.4633 80.865 73.3658 81.012 73.317L82.7273 72.9755C83.8055 72.7804 84.4917 71.7072 84.2956 70.6829C84.1976 70.2926 83.8545 70.0487 83.4625 70.1463C82.5803 70.3414 81.6981 69.756 81.5021 68.8292L81.11 66.7316C81.061 66.5853 81.159 66.4877 81.3061 66.439C81.4531 66.3902 81.5511 66.4877 81.6001 66.6341L81.9922 68.7316C82.1392 69.3658 82.7273 69.8048 83.3644 69.6585C83.6585 69.6097 84.0016 69.6585 84.2466 69.8536C84.4917 70.0487 84.6877 70.2926 84.7367 70.6341C84.9817 71.9512 84.1486 73.2682 82.7763 73.5121L81.061 73.8048C81.11 73.8048 81.11 73.8048 81.061 73.8048Z" fill="#FB8E77"/>
<path d="M76.2093 71.2683C75.8662 71.317 75.5721 71.1219 75.5231 70.7805L75.3761 70.0487C75.3271 69.7073 75.5231 69.4146 75.8662 69.3658C76.2093 69.317 76.5033 69.5122 76.5523 69.8536L76.6993 70.5853C76.7484 70.878 76.5033 71.1707 76.2093 71.2683Z" fill="#1B1B25"/>
<path d="M86.4519 69.6097C86.1089 69.6585 85.8148 69.4633 85.7658 69.1219L85.6188 68.3902C85.5698 68.0487 85.7658 67.756 86.1089 67.7072C86.4519 67.6585 86.746 67.8536 86.795 68.1951L86.942 68.9268C87.04 69.2194 86.795 69.5121 86.4519 69.6097Z" fill="#1B1B25"/>
<path opacity="0.17" d="M75.768 73.9511L73.7096 74.195C73.3175 74.2438 72.9254 73.9511 72.8764 73.5121C72.8274 73.1218 73.1215 72.7316 73.5625 72.6828L75.6209 72.4389C76.013 72.3901 76.4051 72.6828 76.4541 73.1218C76.4541 73.5608 76.16 73.9511 75.768 73.9511Z" fill="#FF887C"/>
<path opacity="0.17" d="M89.6864 71.8048L87.628 72.0487C87.236 72.0975 86.8439 71.8048 86.7949 71.3658C86.7459 70.9756 87.0399 70.5853 87.481 70.5366L89.5394 70.2927C89.9315 70.2439 90.3235 70.5366 90.3725 70.9756C90.3725 71.3658 90.0785 71.7561 89.6864 71.8048Z" fill="#FF887C"/>
<path d="M83.5602 82.5365C83.5112 82.5365 83.4622 82.5365 83.4132 82.4877C82.433 81.8048 81.4528 82.4389 81.4038 82.4877C81.3058 82.5853 81.1588 82.5365 81.0608 82.4389C80.9627 82.3414 81.0117 82.195 81.1098 82.0975C81.5508 81.756 82.6781 81.3658 83.7072 82.0975C83.8053 82.195 83.8543 82.3414 83.7562 82.4389C83.7072 82.4877 83.6092 82.5365 83.5602 82.5365Z" fill="#FB8E77"/>
</g>
<defs>
<clipPath id="clip0_84_1701">
<rect width="319" height="164" fill="white"/>
</clipPath>
</defs>
</svg>
