<svg width="24" height="24" viewBox="0 0 24 24" fill="none" xmlns="http://www.w3.org/2000/svg">
<g id="01) Icons/Filled/pin-fill">
<path id="&#240;&#159;&#142;&#168; Icon &#208;&#161;olor" fill-rule="evenodd" clip-rule="evenodd" d="M12 13C10.07 13 8.5 11.43 8.5 9.5C8.5 7.57 10.07 6 12 6C13.93 6 15.5 7.57 15.5 9.5C15.5 11.43 13.93 13 12 13ZM12 2C7.589 2 4 5.554 4 9.923C4 15.397 11.049 21.502 11.349 21.759C11.537 21.92 11.768 22 12 22C12.232 22 12.463 21.92 12.651 21.759C12.951 21.502 20 15.397 20 9.923C20 5.554 16.411 2 12 2Z" fill="#979899"/>
<mask id="mask0_215_2507" style="mask-type:luminance" maskUnits="userSpaceOnUse" x="4" y="2" width="16" height="20">
<path id="&#240;&#159;&#142;&#168; Icon &#208;&#161;olor_2" fill-rule="evenodd" clip-rule="evenodd" d="M12 13C10.07 13 8.5 11.43 8.5 9.5C8.5 7.57 10.07 6 12 6C13.93 6 15.5 7.57 15.5 9.5C15.5 11.43 13.93 13 12 13ZM12 2C7.589 2 4 5.554 4 9.923C4 15.397 11.049 21.502 11.349 21.759C11.537 21.92 11.768 22 12 22C12.232 22 12.463 21.92 12.651 21.759C12.951 21.502 20 15.397 20 9.923C20 5.554 16.411 2 12 2Z" fill="white"/>
</mask>
<g mask="url(#mask0_215_2507)">
</g>
</g>
</svg>
