<svg width="15" height="12" viewBox="0 0 15 12" fill="none" xmlns="http://www.w3.org/2000/svg">
<path d="M4.03853 6C4.03853 5.85534 4.09932 5.7166 4.20751 5.61431C4.31571 5.51201 4.46245 5.45455 4.61547 5.45455H9.80787V1.90909C9.80787 0.818182 8.58946 0 7.50013 0H2.01927C1.4839 0.000541441 0.970624 0.201851 0.592062 0.559758C0.2135 0.917665 0.000572688 1.40293 0 1.90909V10.0909C0.000572688 10.5971 0.2135 11.0823 0.592062 11.4402C0.970624 11.7981 1.4839 11.9995 2.01927 12H7.7886C8.32397 11.9995 8.83724 11.7981 9.21581 11.4402C9.59437 11.0823 9.80729 10.5971 9.80787 10.0909V6.54545H4.61547C4.46245 6.54545 4.31571 6.48799 4.20751 6.38569C4.09932 6.2834 4.03853 6.14466 4.03853 6ZM14.8312 5.61443L11.9465 2.88716C11.8374 2.78918 11.6922 2.73537 11.5417 2.73719C11.3913 2.73901 11.2475 2.79632 11.1412 2.89691C11.0348 2.99749 10.9742 3.13339 10.9722 3.27562C10.9703 3.41785 11.0272 3.55517 11.1308 3.6583L13.0304 5.45455H9.80787V6.54545H13.0304L11.1308 8.34171C11.075 8.39185 11.0304 8.45206 10.9995 8.51877C10.9687 8.58549 10.9523 8.65736 10.9513 8.73016C10.9504 8.80296 10.9648 8.87521 10.9938 8.94265C11.0228 9.01009 11.0658 9.07136 11.1203 9.12284C11.1747 9.17432 11.2395 9.21498 11.3109 9.24241C11.3822 9.26984 11.4586 9.28349 11.5356 9.28256C11.6126 9.28162 11.6886 9.26613 11.7592 9.23698C11.8298 9.20783 11.8934 9.16562 11.9465 9.11284L14.8312 6.38557C14.9393 6.28329 15 6.1446 15 6C15 5.8554 14.9393 5.71671 14.8312 5.61443Z" fill="#080808"/>
</svg>
