<svg width="18" height="18" viewBox="0 0 18 18" fill="none" xmlns="http://www.w3.org/2000/svg">
<mask id="mask0_209_3556" style="mask-type:alpha" maskUnits="userSpaceOnUse" x="0" y="0" width="18" height="18">
<rect width="18" height="18" fill="#D9D9D9"/>
</mask>
<g mask="url(#mask0_209_3556)">
<path d="M3 15H5.31818V7.8H3V15ZM15.75 8.4C15.75 7.74 15.2284 7.2 14.5909 7.2H10.934L11.4845 4.458L11.5019 4.266C11.5019 4.02 11.4034 3.792 11.2469 3.63L10.6326 3L6.8192 6.954C6.60477 7.17 6.47727 7.47 6.47727 7.8V13.8C6.47727 14.46 6.99886 15 7.63636 15H12.8523C13.3333 15 13.7448 14.7 13.9186 14.268L15.6689 10.038C15.721 9.9 15.75 9.756 15.75 9.6V8.454L15.7442 8.448L15.75 8.4Z" fill="#080808"/>
</g>
</svg>
