<svg width="24" height="24" viewBox="0 0 24 24" fill="none" xmlns="http://www.w3.org/2000/svg">
<mask id="mask0_394_569" style="mask-type:alpha" maskUnits="userSpaceOnUse" x="0" y="0" width="24" height="24">
<rect width="24" height="24" fill="#D9D9D9"/>
</mask>
<g mask="url(#mask0_394_569)">
<path d="M21.3381 18.9385L17.0198 14.6199C17.7535 13.4518 18.1793 12.0712 18.1793 10.5895C18.1793 6.39769 14.7812 3 10.5895 3C6.39785 3 3 6.39769 3 10.5895C3 14.7815 6.39769 18.1788 10.5895 18.1788C12.2019 18.1788 13.6954 17.6747 14.9244 16.8182L19.1913 21.0854C19.4878 21.3816 19.8765 21.5291 20.2647 21.5291C20.6534 21.5291 21.0416 21.3816 21.3386 21.0854C21.9311 20.4923 21.9311 19.5315 21.3381 18.9385ZM10.5895 15.72C7.75633 15.72 5.45936 13.4232 5.45936 10.5898C5.45936 7.75648 7.75633 5.45952 10.5895 5.45952C13.4228 5.45952 15.7196 7.75648 15.7196 10.5898C15.7196 13.4232 13.4228 15.72 10.5895 15.72Z" fill="#080808"/>
</g>
</svg>
