<svg width="25" height="24" viewBox="0 0 25 24" fill="none" xmlns="http://www.w3.org/2000/svg">
<mask id="mask0_394_1881" style="mask-type:alpha" maskUnits="userSpaceOnUse" x="0" y="0" width="25" height="24">
<rect x="0.5" width="24" height="24" fill="#D9D9D9"/>
</mask>
<g mask="url(#mask0_394_1881)">
<path d="M1.5 11.1177V14.0118C1.5 14.5087 2.33448 15.0815 3.73793 15.5291C10.7286 17.8732 23.5 16.2042 23.5 14.0118V11.1177C20.0293 13.9587 4.95172 13.9397 1.5 11.1177ZM3.01724 14.0118C3.01724 14.1124 2.97728 14.2089 2.90614 14.28C2.83501 14.3512 2.73853 14.3911 2.63793 14.3911C2.53733 14.3911 2.44085 14.3512 2.36972 14.28C2.29858 14.2089 2.25862 14.1124 2.25862 14.0118V12.8739C2.25862 12.7733 2.29858 12.6768 2.36972 12.6057C2.44085 12.5345 2.53733 12.4946 2.63793 12.4946C2.73853 12.4946 2.83501 12.5345 2.90614 12.6057C2.97728 12.6768 3.01724 12.7733 3.01724 12.8739V14.0118ZM5.67241 14.7704C5.67241 14.871 5.63245 14.9675 5.56132 15.0386C5.49018 15.1098 5.3937 15.1497 5.2931 15.1497C5.1925 15.1497 5.09602 15.1098 5.02489 15.0386C4.95376 14.9675 4.91379 14.871 4.91379 14.7704V13.6325C4.91379 13.5319 4.95376 13.4354 5.02489 13.3643C5.09602 13.2932 5.1925 13.2532 5.2931 13.2532C5.3937 13.2532 5.49018 13.2932 5.56132 13.3643C5.63245 13.4354 5.67241 13.5319 5.67241 13.6325V14.7704ZM9.08621 15.5291C9.08621 15.6297 9.04624 15.7261 8.97511 15.7973C8.90398 15.8684 8.8075 15.9084 8.7069 15.9084C8.6063 15.9084 8.50982 15.8684 8.43868 15.7973C8.36755 15.7261 8.32759 15.6297 8.32759 15.5291V14.3911C8.32759 14.2905 8.36755 14.194 8.43868 14.1229C8.50982 14.0518 8.6063 14.0118 8.7069 14.0118C8.8075 14.0118 8.90398 14.0518 8.97511 14.1229C9.04624 14.194 9.08621 14.2905 9.08621 14.3911V15.5291ZM12.8793 15.7187C12.8793 15.8193 12.8393 15.9158 12.7682 15.9869C12.6971 16.0581 12.6006 16.098 12.5 16.098C12.3994 16.098 12.3029 16.0581 12.2318 15.9869C12.1607 15.9158 12.1207 15.8193 12.1207 15.7187V14.5808C12.1207 14.4802 12.1607 14.3837 12.2318 14.3126C12.3029 14.2414 12.3994 14.2015 12.5 14.2015C12.6006 14.2015 12.6971 14.2414 12.7682 14.3126C12.8393 14.3837 12.8793 14.4802 12.8793 14.5808V15.7187ZM16.6724 15.5291C16.6724 15.6297 16.6325 15.7261 16.5613 15.7973C16.4902 15.8684 16.3937 15.9084 16.2931 15.9084C16.1925 15.9084 16.096 15.8684 16.0249 15.7973C15.9538 15.7261 15.9138 15.6297 15.9138 15.5291V14.3911C15.9138 14.2905 15.9538 14.194 16.0249 14.1229C16.096 14.0518 16.1925 14.0118 16.2931 14.0118C16.3937 14.0118 16.4902 14.0518 16.5613 14.1229C16.6325 14.194 16.6724 14.2905 16.6724 14.3911V15.5291ZM20.0862 14.7704C20.0862 14.871 20.0462 14.9675 19.9751 15.0386C19.904 15.1098 19.8075 15.1497 19.7069 15.1497C19.6063 15.1497 19.5098 15.1098 19.4387 15.0386C19.3675 14.9675 19.3276 14.871 19.3276 14.7704V13.6325C19.3276 13.5319 19.3675 13.4354 19.4387 13.3643C19.5098 13.2932 19.6063 13.2532 19.7069 13.2532C19.8075 13.2532 19.904 13.2932 19.9751 13.3643C20.0462 13.4354 20.0862 13.5319 20.0862 13.6325V14.7704ZM22.7414 14.0118C22.7414 14.1124 22.7014 14.2089 22.6303 14.28C22.5591 14.3512 22.4627 14.3911 22.3621 14.3911C22.2615 14.3911 22.165 14.3512 22.0939 14.28C22.0227 14.2089 21.9828 14.1124 21.9828 14.0118V12.8739C21.9828 12.7733 22.0227 12.6768 22.0939 12.6057C22.165 12.5345 22.2615 12.4946 22.3621 12.4946C22.4627 12.4946 22.5591 12.5345 22.6303 12.6057C22.7014 12.6768 22.7414 12.7733 22.7414 12.8739V14.0118Z" fill="#F2F3F4"/>
<path d="M4.24241 11.5312C5.15679 11.289 6.08537 11.1041 7.02276 10.9774L5.4031 9.35777C5.36774 9.32241 5.33968 9.28042 5.32054 9.23421C5.3014 9.18801 5.29155 9.13848 5.29155 9.08846C5.29155 9.03845 5.3014 8.98892 5.32054 8.94271C5.33968 8.89651 5.36774 8.85452 5.4031 8.81915C5.47453 8.74773 5.5714 8.7076 5.67241 8.7076C5.72243 8.7076 5.77196 8.71745 5.81816 8.73659C5.86437 8.75573 5.90636 8.78379 5.94172 8.81915L7.97483 10.8523C9.35122 10.6932 10.7352 10.6084 12.1207 10.5981V8.32226C12.1207 8.22166 12.1607 8.12518 12.2318 8.05404C12.3029 7.98291 12.3994 7.94295 12.5 7.94295C12.6006 7.94295 12.6971 7.98291 12.7682 8.05404C12.8393 8.12518 12.8793 8.22166 12.8793 8.32226V10.5981C14.2646 10.6046 15.6486 10.6856 17.0252 10.8409L19.0583 8.80777C19.0936 8.77241 19.1356 8.74435 19.1818 8.72521C19.228 8.70607 19.2776 8.69622 19.3276 8.69622C19.3776 8.69622 19.4271 8.70607 19.4733 8.72521C19.5195 8.74435 19.5615 8.77241 19.5969 8.80777C19.6323 8.84314 19.6603 8.88513 19.6795 8.93134C19.6986 8.97754 19.7084 9.02707 19.7084 9.07708C19.7084 9.1271 19.6986 9.17663 19.6795 9.22283C19.6603 9.26904 19.6323 9.31103 19.5969 9.3464L17.9772 10.9774C21.4252 11.4667 20.2531 11.7361 21.4366 11.3264C22.07 11.1026 23.5 10.5033 23.5 9.8395C23.5 8.73191 19.3276 7.18433 12.5 7.18433C5.67241 7.18433 1.5 8.73191 1.5 9.8395C1.5 10.6247 3.46103 11.3264 4.24241 11.5312Z" fill="#F2F3F4"/>
<path d="M1.5 15.2976V17.8048C1.5 18.8252 4.83414 20.1035 10.2241 20.3993V18.9428C10.2241 18.8422 10.2641 18.7457 10.3352 18.6746C10.4064 18.6034 10.5028 18.5635 10.6034 18.5635H14.3966C14.4972 18.5635 14.5936 18.6034 14.6648 18.6746C14.7359 18.7457 14.7759 18.8422 14.7759 18.9428V20.3993C20.1659 20.1035 23.5 18.8252 23.5 17.8048V15.2976C19.7828 18.1842 5.05793 18.0628 1.5 15.2976Z" fill="#F2F3F4"/>
<path d="M9.84483 5.66698H10.2241V6.49008L10.9828 6.45215V5.66698H14.0172V6.45215L14.7759 6.49008V5.66698H15.1552C15.2558 5.66698 15.3522 5.62701 15.4234 5.55588C15.4945 5.48474 15.5345 5.38826 15.5345 5.28767V3.77042C15.5345 3.66982 15.4945 3.57335 15.4234 3.50221C15.3522 3.43108 15.2558 3.39111 15.1552 3.39111H9.84483C9.74423 3.39111 9.64775 3.43108 9.57661 3.50221C9.50548 3.57335 9.46552 3.66982 9.46552 3.77042V5.28767C9.46552 5.38826 9.50548 5.48474 9.57661 5.55588C9.64775 5.62701 9.74423 5.66698 9.84483 5.66698Z" fill="#F2F3F4"/>
<path d="M2.2586 5.66707H4.53446V7.29052C4.77722 7.22604 5.03135 7.16535 5.29308 7.10845C5.29308 3.19397 5.31963 3.31535 5.23618 3.19397C5.20248 3.1386 5.15514 3.0928 5.0987 3.06092C5.04226 3.02905 4.97859 3.01217 4.91377 3.0119C4.74308 3.0119 4.93273 2.91707 2.0386 4.98052C1.97383 5.02741 1.92554 5.09355 1.90062 5.16952C1.87569 5.24549 1.87541 5.32738 1.89981 5.40352C1.9242 5.47966 1.97204 5.54614 2.03647 5.59347C2.1009 5.6408 2.17865 5.66656 2.2586 5.66707Z" fill="#F2F3F4"/>
<path d="M20.4655 5.66698H22.7414C22.8213 5.66646 22.8991 5.6407 22.9635 5.59337C23.0279 5.54604 23.0758 5.47956 23.1002 5.40342C23.1246 5.32729 23.1243 5.24539 23.0994 5.16942C23.0744 5.09346 23.0261 5.02731 22.9614 4.98042L20.3555 3.1218C20.3086 3.07102 20.2486 3.03404 20.1822 3.01487C20.1157 2.99569 20.0453 2.99505 19.9785 3.01302C19.9117 3.03099 19.8511 3.06688 19.8032 3.1168C19.7553 3.16673 19.722 3.2288 19.7069 3.29629C19.6841 3.36077 19.7069 3.15594 19.7069 7.10836C19.9686 7.16525 20.2228 7.22594 20.4655 7.29042V5.66698Z" fill="#F2F3F4"/>
</g>
</svg>
