<svg width="19" height="18" viewBox="0 0 19 18" fill="none" xmlns="http://www.w3.org/2000/svg">
<mask id="mask0_211_2127" style="mask-type:alpha" maskUnits="userSpaceOnUse" x="0" y="0" width="19" height="18">
<rect width="18" height="18" transform="matrix(1 0 0 -1 0.111389 18)" fill="#D9D9D9"/>
</mask>
<g mask="url(#mask0_211_2127)">
<path d="M3.11139 3H5.42957V10.2H3.11139V3ZM15.8614 9.6C15.8614 10.26 15.3398 10.8 14.7023 10.8H11.0454L11.5959 13.542L11.6133 13.734C11.6133 13.98 11.5148 14.208 11.3583 14.37L10.744 15L6.93059 11.046C6.71616 10.83 6.58866 10.53 6.58866 10.2V4.2C6.58866 3.54 7.11025 3 7.74775 3H12.9637C13.4447 3 13.8562 3.3 14.03 3.732L15.7803 7.962C15.8324 8.1 15.8614 8.244 15.8614 8.4V9.546L15.8556 9.552L15.8614 9.6Z" fill="#080808"/>
</g>
</svg>
