<svg width="25" height="24" viewBox="0 0 25 24" fill="none" xmlns="http://www.w3.org/2000/svg">
<mask id="mask0_394_1911" style="mask-type:alpha" maskUnits="userSpaceOnUse" x="0" y="0" width="25" height="24">
<rect x="0.5" width="24" height="24" fill="#D9D9D9"/>
</mask>
<g mask="url(#mask0_394_1911)">
<path d="M2.5 19H22.5V21H2.5V19ZM11.5 8H13.5V16H11.5V8ZM8.465 8H10.59L7.604 15.964H5.604L2.618 8H4.743L6.604 13.113L8.465 8ZM17.5 14V16H15.5V8H19.5C20.2956 8 21.0587 8.31607 21.6213 8.87868C22.1839 9.44129 22.5 10.2044 22.5 11C22.5 11.7956 22.1839 12.5587 21.6213 13.1213C21.0587 13.6839 20.2956 14 19.5 14H17.5ZM17.5 10V12H19.5C19.7652 12 20.0196 11.8946 20.2071 11.7071C20.3946 11.5196 20.5 11.2652 20.5 11C20.5 10.7348 20.3946 10.4804 20.2071 10.2929C20.0196 10.1054 19.7652 10 19.5 10H17.5ZM2.5 3H22.5V5H2.5V3Z" fill="#979899"/>
</g>
</svg>
