<svg width="25" height="24" viewBox="0 0 25 24" fill="none" xmlns="http://www.w3.org/2000/svg">
<path fill-rule="evenodd" clip-rule="evenodd" d="M4.44831 6H20.5513C21.0733 6 21.5003 6.427 21.5003 6.949V7.051C21.5003 7.573 21.0733 8 20.5513 8H4.44831C3.92631 8 3.50031 7.573 3.50031 7.051V6.949C3.50031 6.427 3.92631 6 4.44831 6ZM20.5513 11H4.44831C3.92631 11 3.50031 11.427 3.50031 11.949V12.051C3.50031 12.573 3.92631 13 4.44831 13H20.5513C21.0733 13 21.5003 12.573 21.5003 12.051V11.949C21.5003 11.427 21.0733 11 20.5513 11ZM20.5513 16H4.44831C3.92631 16 3.50031 16.427 3.50031 16.949V17.051C3.50031 17.573 3.92631 18 4.44831 18H20.5513C21.0733 18 21.5003 17.573 21.5003 17.051V16.949C21.5003 16.427 21.0733 16 20.5513 16Z" fill="#979899"/>
<mask id="mask0_394_1915" style="mask-type:luminance" maskUnits="userSpaceOnUse" x="3" y="6" width="19" height="12">
<path fill-rule="evenodd" clip-rule="evenodd" d="M4.44831 6H20.5513C21.0733 6 21.5003 6.427 21.5003 6.949V7.051C21.5003 7.573 21.0733 8 20.5513 8H4.44831C3.92631 8 3.50031 7.573 3.50031 7.051V6.949C3.50031 6.427 3.92631 6 4.44831 6ZM20.5513 11H4.44831C3.92631 11 3.50031 11.427 3.50031 11.949V12.051C3.50031 12.573 3.92631 13 4.44831 13H20.5513C21.0733 13 21.5003 12.573 21.5003 12.051V11.949C21.5003 11.427 21.0733 11 20.5513 11ZM20.5513 16H4.44831C3.92631 16 3.50031 16.427 3.50031 16.949V17.051C3.50031 17.573 3.92631 18 4.44831 18H20.5513C21.0733 18 21.5003 17.573 21.5003 17.051V16.949C21.5003 16.427 21.0733 16 20.5513 16Z" fill="white"/>
</mask>
<g mask="url(#mask0_394_1915)">
</g>
</svg>
