<svg width="13" height="12" viewBox="0 0 13 12" fill="none" xmlns="http://www.w3.org/2000/svg">
<g id="01) Icons/Filled/message-square-fill">
<path id="&#240;&#159;&#142;&#168; Icon &#208;&#161;olor" fill-rule="evenodd" clip-rule="evenodd" d="M8.992 6C8.716 6 8.492 5.776 8.492 5.5C8.492 5.224 8.716 5 8.992 5C9.268 5 9.492 5.224 9.492 5.5C9.492 5.776 9.268 6 8.992 6ZM6.992 6C6.716 6 6.492 5.776 6.492 5.5C6.492 5.224 6.716 5 6.992 5C7.268 5 7.492 5.224 7.492 5.5C7.492 5.776 7.268 6 6.992 6ZM4.992 6C4.716 6 4.492 5.776 4.492 5.5C4.492 5.224 4.716 5 4.992 5C5.268 5 5.492 5.224 5.492 5.5C5.492 5.776 5.268 6 4.992 6ZM10.492 1.5H3.492C2.665 1.5 1.992 2.173 1.992 3V10.5C1.992 10.68 2.089 10.8465 2.2455 10.935C2.322 10.9785 2.407 11 2.492 11C2.581 11 2.67 10.9765 2.7495 10.9285L5.0115 9.5715C5.0895 9.5245 5.1785 9.5 5.269 9.5H10.492C11.319 9.5 11.992 8.827 11.992 8V3C11.992 2.173 11.319 1.5 10.492 1.5Z" fill="#2B2B2B"/>
<mask id="mask0_85_1254" style="mask-type:luminance" maskUnits="userSpaceOnUse" x="1" y="1" width="11" height="10">
<path id="&#240;&#159;&#142;&#168; Icon &#208;&#161;olor_2" fill-rule="evenodd" clip-rule="evenodd" d="M8.992 6C8.716 6 8.492 5.776 8.492 5.5C8.492 5.224 8.716 5 8.992 5C9.268 5 9.492 5.224 9.492 5.5C9.492 5.776 9.268 6 8.992 6ZM6.992 6C6.716 6 6.492 5.776 6.492 5.5C6.492 5.224 6.716 5 6.992 5C7.268 5 7.492 5.224 7.492 5.5C7.492 5.776 7.268 6 6.992 6ZM4.992 6C4.716 6 4.492 5.776 4.492 5.5C4.492 5.224 4.716 5 4.992 5C5.268 5 5.492 5.224 5.492 5.5C5.492 5.776 5.268 6 4.992 6ZM10.492 1.5H3.492C2.665 1.5 1.992 2.173 1.992 3V10.5C1.992 10.68 2.089 10.8465 2.2455 10.935C2.322 10.9785 2.407 11 2.492 11C2.581 11 2.67 10.9765 2.7495 10.9285L5.0115 9.5715C5.0895 9.5245 5.1785 9.5 5.269 9.5H10.492C11.319 9.5 11.992 8.827 11.992 8V3C11.992 2.173 11.319 1.5 10.492 1.5Z" fill="white"/>
</mask>
<g mask="url(#mask0_85_1254)">
</g>
</g>
</svg>
