<svg width="14" height="18" viewBox="0 0 14 18" fill="none" xmlns="http://www.w3.org/2000/svg">
<path d="M6.63158 11.3684C8.2421 11.3684 9.47368 10.1368 9.47368 8.52632V2.84211C9.47368 1.23158 8.2421 0 6.63158 0C5.02105 0 3.78947 1.23158 3.78947 2.84211V8.52632C3.78947 10.1368 5.02105 11.3684 6.63158 11.3684ZM11.6526 8.52632C11.6526 11.3684 9.28421 13.3579 6.63158 13.3579C3.97895 13.3579 1.61053 11.3684 1.61053 8.52632H0C0 11.7474 2.55789 14.4 5.68421 14.8737V18H7.57895V14.8737C10.7053 14.4 13.2632 11.7474 13.2632 8.52632H11.6526Z" fill="#DADBDC"/>
</svg>
