<svg width="25" height="25" viewBox="0 0 25 25" fill="none" xmlns="http://www.w3.org/2000/svg">
<g id="01) Icons/Line/more-vertical">
<path id="&#240;&#159;&#142;&#168; Icon &#208;&#161;olor" fill-rule="evenodd" clip-rule="evenodd" d="M12.3619 7.67505C13.4496 7.67505 14.3323 6.79228 14.3323 5.70459C14.3323 4.6169 13.4496 3.73413 12.3619 3.73413C11.2742 3.73413 10.3914 4.6169 10.3914 5.70459C10.3914 6.79228 11.2742 7.67505 12.3619 7.67505ZM12.3619 10.6308C11.2742 10.6308 10.3914 11.5135 10.3914 12.6012C10.3914 13.6889 11.2742 14.5717 12.3619 14.5717C13.4496 14.5717 14.3323 13.6889 14.3323 12.6012C14.3323 11.5135 13.4496 10.6308 12.3619 10.6308ZM10.3914 19.4978C10.3914 18.4101 11.2742 17.5274 12.3619 17.5274C13.4496 17.5274 14.3323 18.4101 14.3323 19.4978C14.3323 20.5855 13.4496 21.4683 12.3619 21.4683C11.2742 21.4683 10.3914 20.5855 10.3914 19.4978Z" fill="#DADBDC"/>
<mask id="mask0_77_762" style="mask-type:luminance" maskUnits="userSpaceOnUse" x="10" y="3" width="5" height="19">
<path id="&#240;&#159;&#142;&#168; Icon &#208;&#161;olor_2" fill-rule="evenodd" clip-rule="evenodd" d="M12.3619 7.67505C13.4496 7.67505 14.3323 6.79228 14.3323 5.70459C14.3323 4.6169 13.4496 3.73413 12.3619 3.73413C11.2742 3.73413 10.3914 4.6169 10.3914 5.70459C10.3914 6.79228 11.2742 7.67505 12.3619 7.67505ZM12.3619 10.6308C11.2742 10.6308 10.3914 11.5135 10.3914 12.6012C10.3914 13.6889 11.2742 14.5717 12.3619 14.5717C13.4496 14.5717 14.3323 13.6889 14.3323 12.6012C14.3323 11.5135 13.4496 10.6308 12.3619 10.6308ZM10.3914 19.4978C10.3914 18.4101 11.2742 17.5274 12.3619 17.5274C13.4496 17.5274 14.3323 18.4101 14.3323 19.4978C14.3323 20.5855 13.4496 21.4683 12.3619 21.4683C11.2742 21.4683 10.3914 20.5855 10.3914 19.4978Z" fill="white"/>
</mask>
<g mask="url(#mask0_77_762)">
</g>
</g>
</svg>
