<svg width="270" height="247" viewBox="0 0 270 247" fill="none" xmlns="http://www.w3.org/2000/svg">
<path d="M203.783 14.8902H203.798L211.145 12.386C211.175 12.2511 211.175 12.1161 211.175 11.9962C211.175 11.8612 211.16 11.7413 211.115 11.6213C210.995 11.2764 210.77 10.9015 210.456 10.6316V7.34765C210.456 4.91843 209.586 3.95874 208.686 3.40391C208.221 1.99436 206.287 0 202.493 0C197.995 0 194.606 4.45358 194.606 7.34765C194.606 8.54727 194.561 9.49197 194.516 10.2117C194.516 10.3617 194.501 10.4966 194.501 10.6166C194.171 10.9165 193.946 11.3214 193.841 11.7113C193.826 11.8012 193.811 11.8912 193.811 11.9962C193.811 13.1658 194.471 14.8603 194.561 15.0552C194.651 15.3101 194.846 15.52 195.1 15.64C195.115 15.7 195.13 15.79 195.13 15.9699C195.13 17.5594 196.495 19.0589 197.245 19.7787C197.17 21.4282 196.705 22.5678 196.045 22.8527L190.167 24.8021C188.503 25.3569 187.258 26.7065 186.823 28.4159L186.028 31.5949C185.953 31.9248 186.028 32.2847 186.238 32.5546C186.448 32.8245 186.778 32.9895 187.123 32.9895H203.933C203.483 32.4197 203.063 31.7899 202.673 31.1151C201.683 29.3606 200.994 27.2313 200.994 24.8171V18.804C200.994 17.0346 202.118 15.4751 203.783 14.8902Z" fill="#F2F3F4"/>
<path d="M221.224 17.7334L213.351 15.0552C213.117 14.9742 212.862 14.9742 212.628 15.0552L204.756 17.7334C204.299 17.8878 203.993 18.3152 203.993 18.798V24.8231C203.993 32.1767 212.201 35.7516 212.55 35.9001C212.832 36.0185 213.147 36.0185 213.429 35.9001C213.778 35.7501 221.987 32.1767 221.987 24.8231V18.798C221.987 18.3152 221.681 17.8878 221.224 17.7334ZM217.917 23.4195L213.793 28.6679C213.269 29.3381 212.285 29.4356 211.639 28.8808L209.015 26.6315C208.385 26.0932 208.311 25.1455 208.853 24.5172C209.391 23.8889 210.339 23.8169 210.965 24.3552L212.402 25.5863L215.558 21.5691C216.07 20.9183 217.011 20.8029 217.664 21.3172C218.316 21.8255 218.43 22.7687 217.917 23.4195Z" fill="#F2F3F4"/>
<path d="M154.911 51.5171L145.871 51.9003C145.871 51.9003 149.641 33.3276 154.911 31.3104L154.956 41.6006C156.77 40.089 158.707 38.7231 159.397 39.0992C160.685 39.7904 154.911 51.5171 154.911 51.5171Z" fill="#DADBDC"/>
<path d="M192.008 215.942L191.716 233.008L231.849 222.67L211.265 217.266L192.008 215.942Z" fill="#5A5A5A"/>
<path d="M221.898 102.59L235.263 103.572L227.94 66.7209L219.563 90.3529L221.898 102.59Z" fill="#5A5A5A"/>
<path d="M144.844 154.466C145.238 154.09 149.629 129.024 152.416 112.915C153.104 108.948 154.913 105.26 157.632 102.286C160.351 99.312 163.865 97.1756 167.761 96.1292L218.206 82.5852L226.324 107.759L181.09 123.095L178.336 155.503" fill="#DADBDC"/>
<path d="M110.486 157.819L112.318 161.992C114.198 166.264 117.365 169.844 121.38 172.235C125.395 174.626 130.057 175.707 134.716 175.329L166.738 172.722L186.599 223.646C186.599 223.646 216.465 216.269 215.595 215.112C214.988 214.301 201.257 176.902 193.059 154.492C191.348 149.814 188.088 145.857 183.821 143.276C179.552 140.694 174.529 139.642 169.582 140.292L124.164 146.261" fill="#DADBDC"/>
<path d="M113.588 170.834L141.511 159.265L135.845 141.907L105.265 149.282L113.588 170.834Z" fill="#DADBDC"/>
<path d="M107.439 131.963L111.666 146.677L135.277 140.168L141.511 159.265L104.685 174.518C103.047 175.198 101.279 175.508 99.5062 175.428C97.7339 175.347 96.0011 174.878 94.4315 174.052C92.862 173.226 91.4946 172.065 90.4265 170.652C89.3583 169.238 88.6162 167.606 88.2526 165.873C84.3206 146.974 81.6066 114.481 107.216 108.933C113.963 107.47 131.371 79.6935 131.371 79.6935L135.965 52.6573L155.99 50.6166L153.634 83.8171C153.38 87.3659 152.138 90.7732 150.049 93.6559L133.239 116.839L148.317 142.342L109.612 164.329" fill="#5A5A5A"/>
<mask id="mask0_17_1045" style="mask-type:luminance" maskUnits="userSpaceOnUse" x="85" y="50" width="71" height="126">
<path fill-rule="evenodd" clip-rule="evenodd" d="M107.439 131.963L111.666 146.677L135.277 140.168L141.511 159.265L104.685 174.518C103.047 175.198 101.279 175.508 99.5062 175.428C97.7339 175.347 96.0011 174.878 94.4315 174.052C92.862 173.226 91.4946 172.065 90.4265 170.652C89.3583 169.238 88.6162 167.606 88.2526 165.873C84.3206 146.974 81.6066 114.481 107.216 108.933C113.963 107.47 131.371 79.6935 131.371 79.6935L135.965 52.6573L155.99 50.6166L153.634 83.8171C153.38 87.3659 152.138 90.7732 150.049 93.6559L133.239 116.839L148.317 142.342L109.612 164.329" fill="white"/>
</mask>
<g mask="url(#mask0_17_1045)">
<path d="M146.88 153.653C150.055 153.653 152.628 151.085 152.628 147.916C152.628 144.748 150.055 142.18 146.88 142.18C143.705 142.18 141.132 144.748 141.132 147.916C141.132 151.085 143.705 153.653 146.88 153.653Z" fill="#EFEFEF"/>
<path d="M159.751 138.633C162.926 138.633 165.499 136.064 165.499 132.896C165.499 129.728 162.926 127.16 159.751 127.16C156.576 127.16 154.002 129.728 154.002 132.896C154.002 136.064 156.576 138.633 159.751 138.633Z" fill="#EFEFEF"/>
<path d="M157.093 170.545C160.268 170.545 162.841 167.976 162.841 164.808C162.841 161.64 160.268 159.072 157.093 159.072C153.918 159.072 151.344 161.64 151.344 164.808C151.344 167.976 153.918 170.545 157.093 170.545Z" fill="#EFEFEF"/>
<path d="M105.889 86.0717C109.064 86.0717 111.638 83.5035 111.638 80.3354C111.638 77.1672 109.064 74.599 105.889 74.599C102.714 74.599 100.141 77.1672 100.141 80.3354C100.141 83.5035 102.714 86.0717 105.889 86.0717Z" fill="#EFEFEF"/>
<path d="M82.7515 84.1956C85.9264 84.1956 88.5 81.6274 88.5 78.4593C88.5 75.2911 85.9264 72.7229 82.7515 72.7229C79.5767 72.7229 77.0031 75.2911 77.0031 78.4593C77.0031 81.6274 79.5767 84.1956 82.7515 84.1956Z" fill="#EFEFEF"/>
<path d="M116.102 102.963C119.277 102.963 121.85 100.395 121.85 97.2271C121.85 94.0589 119.277 91.4907 116.102 91.4907C112.927 91.4907 110.353 94.0589 110.353 97.2271C110.353 100.395 112.927 102.963 116.102 102.963Z" fill="#EFEFEF"/>
<path d="M92.9645 101.087C96.1394 101.087 98.713 98.5192 98.713 95.351C98.713 92.1828 96.1394 89.6146 92.9645 89.6146C89.7899 89.6146 87.216 92.1828 87.216 95.351C87.216 98.5192 89.7899 101.087 92.9645 101.087Z" fill="#EFEFEF"/>
<path d="M118.786 71.056C121.96 71.056 124.534 68.4878 124.534 65.3196C124.534 62.1515 121.96 59.5833 118.786 59.5833C115.611 59.5833 113.037 62.1515 113.037 65.3196C113.037 68.4878 115.611 71.056 118.786 71.056Z" fill="#EFEFEF"/>
<path d="M95.6479 69.1776C98.8228 69.1776 101.396 66.6094 101.396 63.4412C101.396 60.2731 98.8228 57.7048 95.6479 57.7048C92.4731 57.7048 89.8994 60.2731 89.8994 63.4412C89.8994 66.6094 92.4731 69.1776 95.6479 69.1776Z" fill="#EFEFEF"/>
<path d="M149.535 121.741C152.71 121.741 155.284 119.173 155.284 116.004C155.284 112.836 152.71 110.268 149.535 110.268C146.36 110.268 143.787 112.836 143.787 116.004C143.787 119.173 146.36 121.741 149.535 121.741Z" fill="#EFEFEF"/>
<path d="M80.1226 116.108C83.2972 116.108 85.871 113.54 85.871 110.371C85.871 107.203 83.2972 104.635 80.1226 104.635C76.9477 104.635 74.3741 107.203 74.3741 110.371C74.3741 113.54 76.9477 116.108 80.1226 116.108Z" fill="#EFEFEF"/>
</g>
<path fill-rule="evenodd" clip-rule="evenodd" d="M107.326 111.382L109.941 89.1562L107.326 111.382Z" fill="#DADBDC"/>
<path d="M107.326 111.382L109.941 89.1562" stroke="#DADBDC" stroke-width="12" stroke-linecap="round"/>
<path d="M170.428 172.969L166.048 172.505L167.487 167.004" stroke="#818181" stroke-linecap="square"/>
<path d="M105.854 148.422L109.793 147.442" stroke="#818181" stroke-linecap="square"/>
<path d="M138.721 150.963C138.721 150.933 146.929 143.464 146.929 143.464L156.647 141.428C156.647 141.428 148.668 133.757 136.386 143.593" fill="#DADBDC"/>
<path d="M181.38 118.572L182.007 123.636L175.502 123.539" stroke="#818181" stroke-linecap="square"/>
<path d="M106.231 131.958L109.765 147.51L135.277 140.168L138.863 151.151L147.153 143.038L169.806 140.062C169.806 140.062 176.367 139.03 179.58 141.089" stroke="#818181" stroke-linecap="square"/>
<g clip-path="url(#clip0_17_1045)">
<path d="M63.2897 56.9472C64.2343 56.9472 64.9998 56.1817 64.9998 55.2371C64.9998 54.2924 64.2343 53.5263 63.2897 53.5263H59.8682V46.684H63.2897C64.2343 46.684 64.9998 45.9185 64.9998 44.9739C64.9998 44.0293 64.2343 43.2632 63.2897 43.2632H59.8682V39.8423C59.8688 39.3882 59.6884 38.9534 59.3677 38.6321C59.047 38.3114 58.6116 38.1316 58.1581 38.1316H54.7366V34.7107C54.7366 33.7661 53.9712 33 53.0265 33C52.0819 33 51.3158 33.7661 51.3158 34.7107V38.1316H44.4735V34.7107C44.4735 33.7661 43.708 33 42.7634 33C41.8187 33 41.0526 33.7661 41.0526 34.7107V38.1316H34.2103V34.7107C34.2103 33.7661 33.4448 33 32.5002 33C31.5556 33 30.7895 33.7661 30.7895 34.7107V38.1316H23.9472V34.7107C23.9472 33.7661 23.1817 33 22.2371 33C21.2924 33 20.5263 33.7661 20.5263 34.7107V38.1316H13.684V34.7107C13.684 33.7661 12.9185 33 11.9739 33C11.0293 33 10.2632 33.7661 10.2632 34.7107V38.1316H6.84231C6.38816 38.1316 5.95343 38.3114 5.63208 38.6321C5.31136 38.9534 5.13158 39.3882 5.13158 39.8423V43.2632H1.71074C0.766104 43.2632 0 44.0293 0 44.9739C0 45.9185 0.766104 46.684 1.71074 46.684H5.13158V53.5263H1.71074C0.766104 53.5263 0 54.2924 0 55.2371C0 56.1817 0.766104 56.9472 1.71074 56.9472H5.13158V63.7895H1.71074C0.766104 63.7895 0 64.5556 0 65.5002C0 66.4448 0.766104 67.2103 1.71074 67.2103H5.13158V74.0526H1.71074C0.766104 74.0526 0 74.8187 0 75.7634C0 76.708 0.766104 77.4735 1.71074 77.4735H5.13158V84.3158H1.71074C0.766104 84.3158 0 85.0819 0 86.0265C0 86.9712 0.766104 87.7366 1.71074 87.7366H5.13158V91.1581C5.13158 91.6116 5.31136 92.047 5.63208 92.3677C5.95343 92.6884 6.38816 92.8688 6.84231 92.8682H10.2632V96.2897C10.2632 97.2343 11.0293 97.9998 11.9739 97.9998C12.9185 97.9998 13.684 97.2343 13.684 96.2897V92.8682H20.5263V96.2897C20.5263 97.2343 21.2924 97.9998 22.2371 97.9998C23.1817 97.9998 23.9472 97.2343 23.9472 96.2897V92.8682H30.7895V96.2897C30.7895 97.2343 31.5556 97.9998 32.5002 97.9998C33.4448 97.9998 34.2103 97.2343 34.2103 96.2897V92.8682H41.0526V96.2897C41.0526 97.2343 41.8187 97.9998 42.7634 97.9998C43.708 97.9998 44.4735 97.2343 44.4735 96.2897V92.8682H51.3158V96.2897C51.3158 97.2343 52.0819 97.9998 53.0265 97.9998C53.9712 97.9998 54.7366 97.2343 54.7366 96.2897V92.8682H58.1581C58.6116 92.8688 59.047 92.6884 59.3677 92.3677C59.6884 92.047 59.8688 91.6116 59.8682 91.1581V87.7366H63.2897C64.2343 87.7366 64.9998 86.9712 64.9998 86.0265C64.9998 85.0819 64.2343 84.3158 63.2897 84.3158H59.8682V77.4735H63.2897C64.2343 77.4735 64.9998 76.708 64.9998 75.7634C64.9998 74.8187 64.2343 74.0526 63.2897 74.0526H59.8682V67.2103H63.2897C64.2343 67.2103 64.9998 66.4448 64.9998 65.5002C64.9998 64.5556 64.2343 63.7895 63.2897 63.7895H59.8682V56.9472H63.2897ZM11.9739 84.3158V46.684C11.9733 46.2305 12.1537 45.7951 12.4744 45.4744C12.7951 45.1537 13.2305 44.9733 13.684 44.9739H51.3158C51.7693 44.9733 52.2047 45.1537 52.5254 45.4744C52.8467 45.7951 53.0265 46.2305 53.0265 46.684V84.3158C53.0265 84.7693 52.8467 85.2047 52.5254 85.5254C52.2047 85.8467 51.7693 86.0265 51.3158 86.0265H13.684C13.2305 86.0265 12.7951 85.8467 12.4744 85.5254C12.1537 85.2047 11.9733 84.7693 11.9739 84.3158Z" fill="#F2F3F4"/>
<path d="M15.3947 82.605H49.6051V48.3947H15.3947V82.605ZM35.9211 56.9472C35.9211 56.4936 36.1008 56.0583 36.4216 55.7375C36.7429 55.4168 37.1776 55.2364 37.6318 55.237H41.0526C41.9973 55.237 42.7634 56.0025 42.7634 56.9472C42.7634 57.8918 41.9973 58.6579 41.0526 58.6579V72.3419C41.9973 72.3419 42.7634 73.108 42.7634 74.0526C42.7634 74.9973 41.9973 75.7634 41.0526 75.7634H37.6318C36.6872 75.7634 35.9211 74.9973 35.9211 74.0526C35.9211 73.108 36.6872 72.3419 37.6318 72.3419V58.6579C37.1776 58.6579 36.7429 58.4781 36.4216 58.1574C36.1008 57.836 35.9211 57.4013 35.9211 56.9472ZM22.2371 60.3686C22.2371 57.5341 24.5341 55.237 27.3686 55.237C30.2025 55.237 32.5002 57.5341 32.5002 60.3686V74.0526C32.5002 74.9973 31.7341 75.7634 30.7895 75.7634C29.8448 75.7634 29.0787 74.9973 29.0787 74.0526V68.921H25.6579V74.0526C25.6579 74.9973 24.8918 75.7634 23.9472 75.7634C23.0025 75.7634 22.2371 74.9973 22.2371 74.0526V60.3686Z" fill="#F2F3F4"/>
<path d="M29.0787 60.3686C29.0787 59.424 28.3133 58.6579 27.3686 58.6579C26.424 58.6579 25.6579 59.424 25.6579 60.3686V65.5002H29.0787V60.3686Z" fill="#F2F3F4"/>
</g>
<path d="M231.719 124.492C231.719 122.877 230.406 121.562 228.789 121.562H222.93C221.313 121.562 220 122.877 220 124.492V131.816H231.719V124.492ZM225.859 128.887C225.05 128.887 224.395 128.231 224.395 127.422C224.395 126.613 225.05 125.957 225.859 125.957C226.668 125.957 227.324 126.613 227.324 127.422C227.324 128.231 226.668 128.887 225.859 128.887Z" fill="#F2F3F4"/>
<path d="M221.465 168.438H230.254C231.064 168.438 231.719 167.782 231.719 166.973V134.746H220V166.973C220 167.782 220.655 168.438 221.465 168.438Z" fill="#F2F3F4"/>
<path d="M258.281 166.973C258.281 167.782 258.936 168.438 259.746 168.438H268.535C269.345 168.438 270 167.782 270 166.973V134.746H258.281V166.973Z" fill="#F2F3F4"/>
<path d="M267.07 121.562H261.211C259.594 121.562 258.281 122.877 258.281 124.492V131.816H270V124.492C270 122.877 268.687 121.562 267.07 121.562ZM264.141 128.887C263.332 128.887 262.676 128.231 262.676 127.422C262.676 126.613 263.332 125.957 264.141 125.957C264.95 125.957 265.605 126.613 265.605 127.422C265.605 128.231 264.95 128.887 264.141 128.887Z" fill="#F2F3F4"/>
<path d="M234.648 130.352V152.839L245 140.022L255.352 152.839V130.352H254.579C250.801 130.352 247.258 132.097 245 134.995C242.742 132.097 239.199 130.352 235.421 130.352H234.648Z" fill="#F2F3F4"/>
<path d="M138.269 192.452H81.7307C80.775 192.452 80 193.24 80 194.212V204.183H140V194.212C140 193.24 139.225 192.452 138.269 192.452ZM123.846 201.837H121.539C120.583 201.837 119.808 201.049 119.808 200.077C119.808 199.105 120.583 198.317 121.539 198.317H123.846C124.802 198.317 125.577 199.105 125.577 200.077C125.577 201.049 124.802 201.837 123.846 201.837ZM130.769 201.837H128.462C127.506 201.837 126.731 201.049 126.731 200.077C126.731 199.105 127.506 198.317 128.462 198.317H130.769C131.725 198.317 132.5 199.105 132.5 200.077C132.5 201.049 131.725 201.837 130.769 201.837Z" fill="#F2F3F4"/>
<path d="M110 214.74C105.864 214.74 102.5 218.161 102.5 222.365C102.5 226.57 105.864 229.99 110 229.99C114.136 229.99 117.5 226.57 117.5 222.365C117.5 218.161 114.136 214.74 110 214.74ZM110 226.002C108.028 226.002 106.423 224.371 106.423 222.365C106.423 220.36 108.028 218.729 110 218.729C111.972 218.729 113.577 220.36 113.577 222.365C113.577 224.371 111.972 226.002 110 226.002Z" fill="#F2F3F4"/>
<path d="M85.1923 207.702V215.327C85.1923 222.064 87.7728 228.397 92.4583 233.161C97.1438 237.925 103.374 240.548 110 240.548C116.626 240.548 122.856 237.925 127.542 233.161C132.227 228.397 134.808 222.064 134.808 215.327V207.702H85.1923ZM110 233.51C103.956 233.51 99.0385 228.51 99.0385 222.365C99.0385 216.22 103.956 211.221 110 211.221C116.044 211.221 120.961 216.22 120.961 222.365C120.961 228.51 116.044 233.51 110 233.51Z" fill="#F2F3F4"/>
<path d="M110.994 109.821L112.326 109.805C118.922 109.732 123.797 103.316 122.496 96.4513L120.984 88.458C119.975 83.1354 115.52 79.3409 110.417 79.4585C104.61 79.5901 100.016 84.7011 100.157 90.8725L100.341 98.8658C100.48 104.995 105.232 109.873 110.994 109.821Z" fill="#DADBDC"/>
<path d="M115.19 92.5769L116.773 98.9104L114.519 99.4841" stroke="#484848"/>
<path d="M104.655 99.1878L106.304 87.1155L106.697 84.2497C107.484 84.9066 108.375 85.4285 109.334 85.7943C112.816 87.1414 122.567 85.2183 123.069 78.1654C123.479 72.4125 117.909 76.3833 114.806 76.4116C109.932 76.4586 106.24 74.0606 100.108 78.4169C92.7643 83.6455 97.7942 93.5995 97.7942 93.5995C97.7942 93.5995 101.102 91.8293 104.655 99.1878Z" fill="#5A5A5A"/>
<path d="M110.485 95.0783C111.122 95.0783 111.637 94.5637 111.637 93.9287C111.637 93.2937 111.122 92.7791 110.485 92.7791C109.849 92.7791 109.333 93.2937 109.333 93.9287C109.333 94.5637 109.849 95.0783 110.485 95.0783Z" fill="#484848"/>
<path d="M117.574 94.3213C118.211 94.3213 118.726 93.8067 118.726 93.1717C118.726 92.5367 118.211 92.022 117.574 92.022C116.938 92.022 116.422 92.5367 116.422 93.1717C116.422 93.8067 116.938 94.3213 117.574 94.3213Z" fill="#484848"/>
<path d="M112.403 101.786C112.403 101.786 112.071 99.4135 109.383 99.2724" stroke="#484848"/>
<path d="M99.5729 102.562C100.996 104.334 103.589 104.619 105.364 103.2C107.14 101.78 107.425 99.1925 106.002 97.4203L103.508 94.3145C102.084 92.5425 99.4914 92.2569 97.7162 93.6766C95.941 95.0966 95.6555 97.6839 97.0787 99.456L99.5729 102.562Z" fill="#DADBDC"/>
<path d="M98.6187 96.2256L102.329 99.2748" stroke="#484848"/>
<path opacity="0.4" d="M113.363 110L110.569 110.649L113.152 112.402L113.363 110Z" fill="#484848"/>
<path d="M146.22 138.776C146.22 138.776 152.6 137.086 156.648 141.423" stroke="#818181" stroke-linecap="square"/>
<defs>
<clipPath id="clip0_17_1045">
<rect width="65" height="65" fill="white" transform="translate(0 33)"/>
</clipPath>
</defs>
</svg>
