<svg width="254" height="380" viewBox="0 0 254 380" fill="none" xmlns="http://www.w3.org/2000/svg">
<path fill-rule="evenodd" clip-rule="evenodd" d="M66.2721 293.022L76.2273 283.997L72.7691 274.869L51.4627 290.508L68.722 320.291C68.722 320.291 69.2767 312.89 68.3743 304.691C67.751 299.027 66.2721 293.022 66.2721 293.022ZM161.496 312.986L159.222 305.741L149.596 306.243L157.608 326.142L188.382 308.516C179.25 305.784 161.496 312.986 161.496 312.986Z" fill="#5A5A5A"/>
<path fill-rule="evenodd" clip-rule="evenodd" d="M73.7177 286.298L72.6234 274.86L60.3603 284.034L66.2719 293.023L73.7177 286.298ZM159.622 306.965L150.105 307.812L153.619 316.234L161.496 312.986L159.622 306.965Z" fill="#EAEBEC"/>
<path d="M111.263 199.553L99.3839 158.676L131.062 158.883L148.137 158.883C148.169 168.831 146.985 185.217 140.716 203.876L160.62 296.628C160.867 297.792 160.449 298.955 159.599 299.708L162.624 310.333L150.262 313.893L147.317 303.993L147.24 304.018C145.487 304.591 143.6 303.628 143.061 301.89L123.396 238.612C121.178 241.847 118.762 245.075 116.135 248.281C99.5054 268.577 89.1411 279.524 83.8107 284.79C81.9078 286.673 78.9476 286.765 76.94 285.226L69.3386 291.419L61.7911 281.147L69.3032 275.027C68.0992 273.116 68.2974 270.633 69.8362 268.938C77.4955 260.482 99.0509 234.659 111.263 199.553Z" fill="#484848"/>
<mask id="mask0_17_1329" style="mask-type:luminance" maskUnits="userSpaceOnUse" x="61" y="158" width="102" height="156">
<path d="M111.263 199.553L98.6222 158.883H131.062L148.137 158.883C148.169 168.831 146.985 185.217 140.716 203.876L160.62 296.628C160.867 297.792 160.449 298.955 159.599 299.708L162.624 310.333L150.262 313.893L147.317 303.993L147.24 304.018C145.487 304.591 143.6 303.628 143.061 301.89L123.396 238.612C121.178 241.847 118.762 245.075 116.135 248.281C99.5054 268.577 89.1411 279.524 83.8107 284.79C81.9078 286.673 78.9476 286.765 76.94 285.226L69.3386 291.419L61.7911 281.147L69.3032 275.027C68.0992 273.116 68.2974 270.633 69.8362 268.938C77.4955 260.482 99.0508 234.659 111.263 199.553L111.263 199.553Z" fill="white"/>
</mask>
<g mask="url(#mask0_17_1329)">
</g>
<path opacity="0.0987491" fill-rule="evenodd" clip-rule="evenodd" d="M147.317 303.993L147.24 304.018C145.487 304.591 143.6 303.628 143.061 301.89L123.396 238.612L111.263 199.553L99.6493 158.883H131.062L140.716 203.876L160.62 296.628C160.867 297.792 160.449 298.955 159.599 299.708L162.624 310.333L150.262 313.893L147.317 303.993Z" fill="white"/>
<path d="M153.948 301.533L148.741 303.361L127.85 231.695L114.961 187.483L106.625 158.883H117.192L119.049 166.096L133.364 221.646L153.948 301.533Z" fill="#B7B8B9"/>
<path fill-rule="evenodd" clip-rule="evenodd" d="M177.37 122.523C178.632 120.753 179.804 119.109 180.863 117.706C181.006 117.671 181.158 117.634 181.318 117.595C184.193 116.893 189.616 115.568 191.117 114.044C193.343 111.783 196.099 99.8996 194.932 98.8744C194.925 98.87 194.893 98.8444 194.838 98.8008C194.165 98.2661 190.094 95.0331 188.649 95.3279C187.677 94.8909 187.015 94.5992 187.015 94.5992L184.995 102.606C184.729 102.835 184.539 103.053 184.452 103.251C184.345 103.496 184.446 103.672 184.695 103.796L184.103 106.142L184.094 106.161C184.065 106.227 184.052 106.288 184.052 106.344L183.796 107.357L182.333 95.3391C182.333 95.3391 175.325 102.432 173.737 104.735C172.804 106.087 172.152 109.924 172.62 112.859L158.839 128.699L152.089 109.797L137.069 118.641C137.069 118.641 146.273 140.924 153.991 144.062C162.014 144.062 170.879 131.628 177.37 122.523ZM90.7917 173.711L88.8446 171.983L89.3127 142.573L97.8408 127.199L84.4224 118.641C84.4224 118.641 76.8013 134.44 76.4814 141.556C76.2174 147.424 78.3717 166.536 79.1362 173.065C78.8864 173.602 78.6628 174.123 78.4961 174.577C77.3825 177.613 77.2612 178.887 77.0737 180.857C77.0266 181.352 76.9753 181.891 76.9031 182.513C76.6049 185.076 76.5843 187.653 77.5973 191.082C78.2487 193.287 78.9437 195.16 79.3057 195.081C80.2176 194.883 80.2523 193.759 80.2523 193.759L79.8223 191.672L79.6275 189.635C79.6275 189.635 82.8666 198.656 83.1409 198.606C84.1114 198.43 84.2659 196.849 84.2659 196.849C84.2659 196.849 85.2808 199.963 85.7918 199.85C87.0911 199.563 86.9679 198.121 86.9679 198.121C86.9679 198.121 87.3781 198.466 87.6931 198.378C88.8702 198.053 88.835 196.054 88.8143 194.882C88.8127 194.788 88.8111 194.699 88.8103 194.617C88.8103 194.617 88.2892 190.929 88.3956 189.792C88.4735 188.96 88.5418 188.218 88.6028 187.557C89.0061 183.182 89.0869 182.305 89.4913 181.667C90.2956 182.192 90.5935 183.091 90.9097 184.046C91.1396 184.74 91.3793 185.464 91.8304 186.094C93.2033 188.012 97.0321 189.824 94.8915 185.43C93.7029 182.99 93.4073 181.489 93.133 180.096C92.9721 179.278 92.8185 178.498 92.4963 177.587C91.6244 175.123 90.7917 173.711 90.7917 173.711Z" fill="#EAEBEC"/>
<path fill-rule="evenodd" clip-rule="evenodd" d="M149.067 158.828H99.4282L98.5958 128.933L83.9275 118.348C83.9275 118.348 90.1407 108.351 102.967 96.7917C109.268 93.8757 110.526 93.7729 113.083 93.5639C113.448 93.5341 113.839 93.5021 114.276 93.4594H114.789H115.303L116.843 93.4594L119.924 93.4594L123.519 93.4594L125.573 93.4594L129.168 93.4594L131.735 94.4865L133.789 95.5135H134.816L135.477 95.6389C142.334 97.4855 148.814 101.293 152.602 108.044C152.907 108.588 153.186 109.112 153.441 109.616L153.494 109.606L153.66 110.059C154.576 111.942 155.138 113.547 155.436 114.915L158.571 123.49L150.909 128.129L149.067 158.828Z" fill="#5A5A5A"/>
<path opacity="0.200521" d="M98.5951 128.932L102.577 131.598L112.147 120.603" stroke="#5A5A5A" stroke-width="5"/>
<path d="M189.493 109.497L188.8 112.854H177.569L182.866 86.1307H194.097C193.806 87.5992 193.12 91.0579 192.04 96.5069L189.832 95.497L189.144 95.309L188.603 95.3389L188.368 95.497V96.1463L190.769 99.5528L188.932 100.342L186.107 101.805L185.29 102.362L184.974 102.651L184.716 102.88L184.551 103.076L184.452 103.251L184.41 103.479L184.452 103.579L184.501 103.657L184.573 103.727L185.499 104.05L187.611 103.479H189.7L186.912 104.05L185.076 105.134L184.452 105.714L184.099 106.141V106.531L184.716 106.804L188.603 106.364L187.315 107.055L186.463 107.577L185.681 107.975L185.076 108.744V109.124L185.29 109.347L185.833 109.632H186.661H188.329L189.493 109.497Z" fill="#5A5A5A"/>
<path fill-rule="evenodd" clip-rule="evenodd" d="M177.567 112.854H175.709L181.007 86.1307H182.865L177.567 112.854Z" fill="#5A5A5A"/>
<path fill-rule="evenodd" clip-rule="evenodd" d="M184.799 89.2335C184.644 90.014 184.183 90.5827 183.771 90.503C183.359 90.4237 183.15 89.7266 183.305 88.946C183.461 88.1652 183.921 87.5969 184.333 87.6762C184.746 87.7558 184.954 88.453 184.799 89.2335Z" fill="#5A5A5A"/>
<path d="M127.75 103C127.46 103.001 127.169 102.986 126.881 102.955C124.965 102.756 123.218 101.901 122.024 100.577C120.831 99.2545 120.288 97.5719 120.516 95.8997L123.963 70.5984C124.191 68.926 125.171 67.4014 126.688 66.3598C127.439 65.8441 128.299 65.4626 129.219 65.2369C130.139 65.0113 131.101 64.9459 132.05 65.0447C132.999 65.1434 133.916 65.4043 134.749 65.8125C135.583 66.2206 136.316 66.768 136.907 67.4232C137.498 68.0786 137.935 68.8293 138.193 69.632C138.452 70.4348 138.527 71.2743 138.414 72.1023L134.967 97.4036C134.756 98.9452 133.905 100.366 132.575 101.397C131.245 102.428 129.529 102.998 127.75 103Z" fill="#EAEBEC"/>
<path d="M134.549 91.0177L136.171 91.1989C138.057 91.4116 139.967 91.2059 141.764 90.5965C143.562 89.9872 145.203 88.9892 146.571 87.6732C147.94 86.3575 149.001 84.7563 149.68 82.9835C150.359 81.2109 150.639 79.3106 150.499 77.4174L149.811 68.0393C149.589 65.0105 148.306 62.1568 146.189 59.9795C144.072 57.8022 141.255 56.4404 138.233 56.1335C134.825 55.7877 131.419 56.8101 128.764 58.9757C126.109 61.1413 124.424 64.2727 124.078 67.6811L123.144 76.8761C122.8 80.26 123.805 83.6428 125.94 86.2904C128.075 88.9381 131.169 90.6366 134.549 91.0177Z" fill="#EAEBEC"/>
<path d="M127.035 81.0498L127.036 81.0486C129.271 79.6743 129.967 76.7489 128.593 74.5147L127.181 72.2196C125.806 69.9856 122.881 69.2887 120.647 70.663L120.645 70.664C118.411 72.0385 117.714 74.9639 119.089 77.1979L120.501 79.4931C121.875 81.7272 124.8 82.4241 127.035 81.0498Z" fill="#EAEBEC"/>
<path d="M121.182 74.3746L124.989 78.3995" stroke="#5A5A5A" stroke-linecap="square"/>
<path d="M143.822 69.2307L144.09 76.7674L141.409 76.8761" stroke="#5A5A5A" stroke-linecap="square"/>
<path d="M135.837 79.2166C135.615 79.6261 135.476 80.0755 135.428 80.5388C135.38 81.0021 135.424 81.4702 135.557 81.9165C135.69 82.3629 135.91 82.7787 136.203 83.1401C136.497 83.5018 136.859 83.8018 137.268 84.0234C137.678 84.245 138.127 84.3838 138.591 84.4317C139.054 84.4796 139.522 84.436 139.968 84.3029C140.415 84.1701 140.831 83.9504 141.192 83.6567C141.554 83.3631 141.854 83.0013 142.075 82.5915C143.007 80.8668 141.194 80.08 139.459 79.1482C137.724 78.2164 136.768 77.4939 135.837 79.2166Z" fill="#5A5A5A"/>
<path d="M128.032 77.8542L131.655 64.2478L132.514 61.0278C133.322 61.8932 134.267 62.6189 135.311 63.1751C139.103 65.2158 150.534 64.4028 152.118 56.3871C153.41 49.8505 146.469 53.6078 142.915 53.1993C137.33 52.5553 133.456 49.2689 125.809 53.4005C116.662 58.3492 120.995 70.4804 120.995 70.4804C120.995 70.4804 125.02 68.9047 128.032 77.8542Z" fill="#5A5A5A"/>
<path opacity="0.4" d="M135.548 91.2391L130.704 90.7984L135.127 95.1152L135.548 91.2391Z" fill="#5A5A5A"/>
<path d="M138.66 73.3019C139.395 73.3019 139.99 72.7064 139.99 71.9717C139.99 71.2369 139.395 70.6414 138.66 70.6414C137.925 70.6414 137.33 71.2369 137.33 71.9717C137.33 72.7064 137.925 73.3019 138.66 73.3019Z" fill="#5A5A5A"/>
<path d="M146.595 73.3019C147.33 73.3019 147.926 72.7064 147.926 71.9717C147.926 71.2369 147.33 70.6414 146.595 70.6414C145.861 70.6414 145.265 71.2369 145.265 71.9717C145.265 72.7064 145.861 73.3019 146.595 73.3019Z" fill="#5A5A5A"/>
</svg>
