<svg width="41" height="41" viewBox="0 0 41 41" fill="none" xmlns="http://www.w3.org/2000/svg">
<circle cx="20.5" cy="20.5" r="19" fill="#2B2B2B" stroke="white" stroke-width="3"/>
<path d="M24.0958 21.096C24.0958 23.0076 22.5462 24.5573 20.6346 24.5573C18.723 24.5573 17.1733 23.0076 17.1733 21.096C17.1733 19.1844 18.723 17.6348 20.6346 17.6348C22.5462 17.6348 24.0958 19.1844 24.0958 21.096Z" fill="white"/>
<path d="M29.0965 15.516H25.6621C25.4053 15.516 25.1649 15.3874 25.0221 15.1737L23.9406 13.5511C23.7978 13.3367 23.5575 13.2085 23.3005 13.2085H17.9704C17.7136 13.2085 17.4732 13.337 17.3305 13.5511L16.2489 15.1737C16.1061 15.3874 15.8659 15.516 15.6088 15.516H12.1747C11.5374 15.516 11.021 16.0329 11.021 16.6697V26.2844C11.021 26.9215 11.5374 27.4379 12.1747 27.4379H29.0965C29.7338 27.4379 30.2502 26.9215 30.2502 26.2844V16.6697C30.2504 16.0329 29.7339 15.516 29.0967 15.516H29.0965ZM20.6356 25.7106C18.0906 25.7106 16.0206 23.6407 16.0206 21.0956C16.0206 18.5515 18.0907 16.4805 20.6356 16.4805C23.1805 16.4805 25.2506 18.5516 25.2506 21.0956C25.2506 23.6405 23.1805 25.7106 20.6356 25.7106ZM26.4044 17.2543C26.4044 17.4646 26.2341 17.6343 26.0236 17.6343H26.0159C25.8056 17.6343 25.6349 17.4644 25.6349 17.2543V17.2463C25.6349 17.036 25.8054 16.8655 26.0159 16.8655H26.0236C26.2339 16.8655 26.4044 17.036 26.4044 17.2463V17.2543Z" fill="white"/>
<path d="M13.3281 13.9775H14.8665V14.7469H13.3281V13.9775Z" fill="white"/>
</svg>
