<svg width="18" height="15" viewBox="0 0 18 15" fill="none" xmlns="http://www.w3.org/2000/svg">
<path d="M17.1698 6.41741L17.1638 6.4149L1.24321 0.0654858C0.971216 -0.0439806 0.66024 -0.0149003 0.415275 0.142909C0.156438 0.305989 0.000351989 0.583386 2.04222e-07 0.880937V4.94171C0.000146261 5.35478 0.305616 5.70944 0.727663 5.78655L9.41078 7.33035C9.48116 7.34318 9.53211 7.40233 9.53211 7.47122C9.53211 7.54011 9.48116 7.59926 9.41078 7.61209L0.728035 9.15589C0.306117 9.23279 0.000538083 9.5871 2.04222e-07 10V14.0615C-0.000200898 14.3456 0.148132 14.6108 0.394772 14.7673C0.540826 14.8606 0.712232 14.9104 0.887584 14.9106C1.00949 14.9105 1.13015 14.887 1.24247 14.8415L17.1627 8.52826L17.1698 8.52503C17.6078 8.34403 17.8917 7.92964 17.8917 7.47122C17.8917 7.0128 17.6078 6.59841 17.1698 6.41741Z" fill="#5E5F5F"/>
</svg>
