<svg width="24" height="24" viewBox="0 0 24 24" fill="none" xmlns="http://www.w3.org/2000/svg">
<g id="01) Icons/Filled/settings-fill">
<path id="&#240;&#159;&#142;&#168; Icon &#208;&#161;olor" fill-rule="evenodd" clip-rule="evenodd" d="M12 10.5C11.173 10.5 10.5 11.173 10.5 12C10.5 12.827 11.173 13.5 12 13.5C12.827 13.5 13.5 12.827 13.5 12C13.5 11.173 12.827 10.5 12 10.5ZM12 15.5C10.07 15.5 8.5 13.93 8.5 12C8.5 10.07 10.07 8.5 12 8.5C13.93 8.5 15.5 10.07 15.5 12C15.5 13.93 13.93 15.5 12 15.5ZM21.8916 10.319L21.1046 7.798C20.9166 7.193 20.5066 6.704 19.9516 6.42C19.4106 6.143 18.7956 6.096 18.2196 6.288L17.8796 6.401C17.3436 6.582 16.7456 6.482 16.2866 6.137L16.1796 6.056C15.7426 5.728 15.4836 5.193 15.4856 4.627L15.4876 4.348C15.4896 3.713 15.2476 3.118 14.8046 2.673C14.3756 2.242 13.8086 2.004 13.2066 2.003L10.6596 2H10.6556C9.40163 2 8.37763 3.042 8.37263 4.326L8.37163 4.567C8.36963 5.165 8.09463 5.729 7.63863 6.077L7.50963 6.175C6.99663 6.565 6.33163 6.676 5.73263 6.472C5.17463 6.281 4.57763 6.322 4.04963 6.588C3.50963 6.861 3.11063 7.335 2.92563 7.922L2.10963 10.517C1.72263 11.749 2.37263 13.041 3.58963 13.458L3.75363 13.514C4.27163 13.691 4.68863 14.143 4.87263 14.725L4.92763 14.893C5.14663 15.539 5.07063 16.22 4.69663 16.75C3.97663 17.773 4.19563 19.216 5.18563 19.966L7.25763 21.54C7.65563 21.842 8.12663 22 8.61363 22C8.72863 22 8.84463 21.992 8.96063 21.974C9.57263 21.878 10.1096 21.543 10.4716 21.03L10.7026 20.702C11.0346 20.23 11.5416 19.951 12.1306 19.935C12.7176 19.902 13.2776 20.208 13.6276 20.712L13.7456 20.884C14.1046 21.402 14.6406 21.742 15.2546 21.841C15.8636 21.938 16.4706 21.787 16.9656 21.413L19.0266 19.857C20.0206 19.108 20.2486 17.66 19.5346 16.628L19.2736 16.253C18.9456 15.779 18.8496 15.162 19.0156 14.601C19.1966 13.989 19.6486 13.509 20.2256 13.315L20.4266 13.248C21.6136 12.851 22.2706 11.537 21.8916 10.319Z" fill="#979899"/>
<mask id="mask0_120_1439" style="mask-type:luminance" maskUnits="userSpaceOnUse" x="1" y="2" width="21" height="20">
<path id="&#240;&#159;&#142;&#168; Icon &#208;&#161;olor_2" fill-rule="evenodd" clip-rule="evenodd" d="M12 10.5C11.173 10.5 10.5 11.173 10.5 12C10.5 12.827 11.173 13.5 12 13.5C12.827 13.5 13.5 12.827 13.5 12C13.5 11.173 12.827 10.5 12 10.5ZM12 15.5C10.07 15.5 8.5 13.93 8.5 12C8.5 10.07 10.07 8.5 12 8.5C13.93 8.5 15.5 10.07 15.5 12C15.5 13.93 13.93 15.5 12 15.5ZM21.8916 10.319L21.1046 7.798C20.9166 7.193 20.5066 6.704 19.9516 6.42C19.4106 6.143 18.7956 6.096 18.2196 6.288L17.8796 6.401C17.3436 6.582 16.7456 6.482 16.2866 6.137L16.1796 6.056C15.7426 5.728 15.4836 5.193 15.4856 4.627L15.4876 4.348C15.4896 3.713 15.2476 3.118 14.8046 2.673C14.3756 2.242 13.8086 2.004 13.2066 2.003L10.6596 2H10.6556C9.40163 2 8.37763 3.042 8.37263 4.326L8.37163 4.567C8.36963 5.165 8.09463 5.729 7.63863 6.077L7.50963 6.175C6.99663 6.565 6.33163 6.676 5.73263 6.472C5.17463 6.281 4.57763 6.322 4.04963 6.588C3.50963 6.861 3.11063 7.335 2.92563 7.922L2.10963 10.517C1.72263 11.749 2.37263 13.041 3.58963 13.458L3.75363 13.514C4.27163 13.691 4.68863 14.143 4.87263 14.725L4.92763 14.893C5.14663 15.539 5.07063 16.22 4.69663 16.75C3.97663 17.773 4.19563 19.216 5.18563 19.966L7.25763 21.54C7.65563 21.842 8.12663 22 8.61363 22C8.72863 22 8.84463 21.992 8.96063 21.974C9.57263 21.878 10.1096 21.543 10.4716 21.03L10.7026 20.702C11.0346 20.23 11.5416 19.951 12.1306 19.935C12.7176 19.902 13.2776 20.208 13.6276 20.712L13.7456 20.884C14.1046 21.402 14.6406 21.742 15.2546 21.841C15.8636 21.938 16.4706 21.787 16.9656 21.413L19.0266 19.857C20.0206 19.108 20.2486 17.66 19.5346 16.628L19.2736 16.253C18.9456 15.779 18.8496 15.162 19.0156 14.601C19.1966 13.989 19.6486 13.509 20.2256 13.315L20.4266 13.248C21.6136 12.851 22.2706 11.537 21.8916 10.319Z" fill="white"/>
</mask>
<g mask="url(#mask0_120_1439)">
</g>
</g>
</svg>
