<svg width="13" height="12" viewBox="0 0 13 12" fill="none" xmlns="http://www.w3.org/2000/svg">
<g id="01) Icons/Filled/share-fill">
<path id="&#240;&#159;&#142;&#168; Icon &#208;&#161;olor" fill-rule="evenodd" clip-rule="evenodd" d="M9.72797 7.50024C9.31947 7.50024 8.94947 7.66524 8.67847 7.93074L4.71097 6.16774C4.71747 6.11224 4.72797 6.05724 4.72797 6.00024C4.72797 5.94324 4.71747 5.88824 4.71097 5.83274L8.67847 4.06974C8.94947 4.33524 9.31947 4.50024 9.72797 4.50024C10.555 4.50024 11.228 3.82724 11.228 3.00024C11.228 2.17324 10.555 1.50024 9.72797 1.50024C8.90097 1.50024 8.22797 2.17324 8.22797 3.00024C8.22797 3.05724 8.23847 3.11224 8.24497 3.16774L4.27747 4.93074C4.00647 4.66524 3.63647 4.50024 3.22797 4.50024C2.40097 4.50024 1.72797 5.17324 1.72797 6.00024C1.72797 6.82724 2.40097 7.50024 3.22797 7.50024C3.63647 7.50024 4.00647 7.33524 4.27747 7.06974L8.24497 8.83274C8.23847 8.88824 8.22797 8.94324 8.22797 9.00024C8.22797 9.82724 8.90097 10.5002 9.72797 10.5002C10.555 10.5002 11.228 9.82724 11.228 9.00024C11.228 8.17324 10.555 7.50024 9.72797 7.50024Z" fill="#2B2B2B"/>
<mask id="mask0_85_1268" style="mask-type:luminance" maskUnits="userSpaceOnUse" x="1" y="1" width="11" height="10">
<path id="&#240;&#159;&#142;&#168; Icon &#208;&#161;olor_2" fill-rule="evenodd" clip-rule="evenodd" d="M9.72797 7.50024C9.31947 7.50024 8.94947 7.66524 8.67847 7.93074L4.71097 6.16774C4.71747 6.11224 4.72797 6.05724 4.72797 6.00024C4.72797 5.94324 4.71747 5.88824 4.71097 5.83274L8.67847 4.06974C8.94947 4.33524 9.31947 4.50024 9.72797 4.50024C10.555 4.50024 11.228 3.82724 11.228 3.00024C11.228 2.17324 10.555 1.50024 9.72797 1.50024C8.90097 1.50024 8.22797 2.17324 8.22797 3.00024C8.22797 3.05724 8.23847 3.11224 8.24497 3.16774L4.27747 4.93074C4.00647 4.66524 3.63647 4.50024 3.22797 4.50024C2.40097 4.50024 1.72797 5.17324 1.72797 6.00024C1.72797 6.82724 2.40097 7.50024 3.22797 7.50024C3.63647 7.50024 4.00647 7.33524 4.27747 7.06974L8.24497 8.83274C8.23847 8.88824 8.22797 8.94324 8.22797 9.00024C8.22797 9.82724 8.90097 10.5002 9.72797 10.5002C10.555 10.5002 11.228 9.82724 11.228 9.00024C11.228 8.17324 10.555 7.50024 9.72797 7.50024Z" fill="white"/>
</mask>
<g mask="url(#mask0_85_1268)">
</g>
</g>
</svg>
