<svg width="18" height="18" viewBox="0 0 18 18" fill="none" xmlns="http://www.w3.org/2000/svg">
<path d="M8.99998 13.9501C11.097 13.9501 12.879 12.636 13.599 10.8H4.401C5.12101 12.636 6.90301 13.9501 8.99998 13.9501Z" fill="#DADBDC"/>
<path d="M8.99551 0C4.023 0 0 4.02751 0 8.99998C0 13.9724 4.023 18 8.99551 18C13.968 18 18 13.9724 18 8.99998C18 4.02751 13.968 0 8.99551 0ZM8.99998 16.2C5.022 16.2 1.79997 12.978 1.79997 8.99998C1.79997 5.02195 5.022 1.80001 8.99998 1.80001C12.978 1.80001 16.2 5.022 16.2 8.99998C16.2 12.978 12.978 16.2 8.99998 16.2Z" fill="#DADBDC"/>
<path d="M6.19199 7.14605L7.14602 8.10004L8.10001 7.14605L6.19199 5.23804L4.27951 7.14605L5.23801 8.10004L6.19199 7.14605Z" fill="#DADBDC"/>
<path d="M9.89999 7.14605L10.854 8.10004L11.808 7.14605L12.762 8.10004L13.7205 7.14605L11.808 5.23804L9.89999 7.14605Z" fill="#DADBDC"/>
</svg>
