<svg width="11" height="11" viewBox="0 0 11 11" fill="none" xmlns="http://www.w3.org/2000/svg">
<path d="M5.8183 0.438721C3.09906 0.438721 0.892151 2.64563 0.892151 5.36487C0.892151 8.0841 3.09906 10.291 5.8183 10.291C8.53753 10.291 10.7444 8.0841 10.7444 5.36487C10.7444 2.64563 8.53753 0.438721 5.8183 0.438721ZM5.32568 9.2713C3.37985 9.02992 1.87738 7.37473 1.87738 5.36487C1.87738 5.05944 1.91679 4.7688 1.98083 4.48309L4.34045 6.84271V7.33532C4.34045 7.8772 4.7838 8.32055 5.32568 8.32055V9.2713ZM8.72472 8.02006C8.59664 7.62104 8.23211 7.33532 7.78875 7.33532H7.29614V5.85748C7.29614 5.58654 7.07446 5.36487 6.80352 5.36487H3.84784V4.37964H4.83307C5.104 4.37964 5.32568 4.15796 5.32568 3.88702V2.90179H6.31091C6.85279 2.90179 7.29614 2.45844 7.29614 1.91656V1.71459C8.7395 2.3008 9.75921 3.71461 9.75921 5.36487C9.75921 6.3895 9.36512 7.32054 8.72472 8.02006Z" fill="#F2F3F4"/>
</svg>
